G75*
%MOIN*%
%OFA0B0*%
%FSLAX24Y24*%
%IPPOS*%
%LPD*%
%AMOC8*
5,1,8,0,0,1.08239X$1,22.5*
%
%ADD10R,0.0600X0.2550*%
%ADD11C,0.0520*%
%ADD12OC8,0.0520*%
%ADD13C,0.0160*%
%ADD14C,0.0310*%
%ADD15C,0.0120*%
%ADD16C,0.0240*%
D10*
X000930Y003800D03*
X001930Y003800D03*
X003930Y003800D03*
X004930Y003800D03*
X005930Y003800D03*
X006930Y003800D03*
X007930Y003800D03*
X008930Y003800D03*
X009930Y003800D03*
X010930Y003800D03*
X011930Y003800D03*
X012930Y003800D03*
X013930Y003800D03*
X014930Y003800D03*
X016930Y003800D03*
X017930Y003800D03*
D11*
X015930Y008290D02*
X015930Y008810D01*
X014930Y008810D02*
X014930Y008290D01*
X013930Y008290D02*
X013930Y008810D01*
X012930Y008810D02*
X012930Y008290D01*
X011930Y008290D02*
X011930Y008810D01*
X010930Y008810D02*
X010930Y008290D01*
X009930Y008290D02*
X009930Y008810D01*
X008930Y008810D02*
X008930Y008290D01*
X007930Y008290D02*
X007930Y008810D01*
X006930Y008810D02*
X006930Y008290D01*
X005930Y008290D02*
X005930Y008810D01*
X004930Y008810D02*
X004930Y008290D01*
X003930Y008290D02*
X003930Y008810D01*
X002930Y008810D02*
X002930Y008290D01*
X002930Y014290D02*
X002930Y014810D01*
X003930Y014810D02*
X003930Y014290D01*
X004930Y014290D02*
X004930Y014810D01*
X005930Y014810D02*
X005930Y014290D01*
X006930Y014290D02*
X006930Y014810D01*
X007930Y014810D02*
X007930Y014290D01*
X008930Y014290D02*
X008930Y014810D01*
X009930Y014810D02*
X009930Y014290D01*
X010930Y014290D02*
X010930Y014810D01*
X011930Y014810D02*
X011930Y014290D01*
X012930Y014290D02*
X012930Y014810D01*
X013930Y014810D02*
X013930Y014290D01*
X014930Y014290D02*
X014930Y014810D01*
X015930Y014810D02*
X015930Y014290D01*
X015930Y026665D02*
X015930Y027185D01*
X014930Y027185D02*
X014930Y026665D01*
X013930Y026665D02*
X013930Y027185D01*
X012930Y027185D02*
X012930Y026665D01*
X012930Y028165D02*
X012930Y028685D01*
X011930Y028685D02*
X011930Y028165D01*
X011930Y027185D02*
X011930Y026665D01*
X010930Y026665D02*
X010930Y027185D01*
X010930Y028165D02*
X010930Y028685D01*
X009930Y028685D02*
X009930Y028165D01*
X009930Y027185D02*
X009930Y026665D01*
X008930Y026665D02*
X008930Y027185D01*
X008930Y028165D02*
X008930Y028685D01*
X007930Y028685D02*
X007930Y028165D01*
X007930Y027185D02*
X007930Y026665D01*
X006930Y026665D02*
X006930Y027185D01*
X006930Y028165D02*
X006930Y028685D01*
X005930Y028685D02*
X005930Y028165D01*
X005930Y027185D02*
X005930Y026665D01*
X004930Y026665D02*
X004930Y027185D01*
X004930Y028165D02*
X004930Y028685D01*
X003930Y028685D02*
X003930Y028165D01*
X003930Y027185D02*
X003930Y026665D01*
X002930Y026665D02*
X002930Y027185D01*
X002930Y028165D02*
X002930Y028685D01*
X001930Y028685D02*
X001930Y028165D01*
X001930Y027185D02*
X001930Y026665D01*
X001930Y031165D02*
X001930Y031685D01*
X001930Y032665D02*
X001930Y033185D01*
X002930Y033185D02*
X002930Y032665D01*
X002930Y031685D02*
X002930Y031165D01*
X003930Y031165D02*
X003930Y031685D01*
X003930Y032665D02*
X003930Y033185D01*
X004930Y033185D02*
X004930Y032665D01*
X004930Y031685D02*
X004930Y031165D01*
X005930Y031165D02*
X005930Y031685D01*
X005930Y032665D02*
X005930Y033185D01*
X006930Y033185D02*
X006930Y032665D01*
X006930Y031685D02*
X006930Y031165D01*
X007930Y031165D02*
X007930Y031685D01*
X007930Y032665D02*
X007930Y033185D01*
X008930Y033185D02*
X008930Y032665D01*
X008930Y031685D02*
X008930Y031165D01*
X009930Y031165D02*
X009930Y031685D01*
X009930Y032665D02*
X009930Y033185D01*
X010930Y033185D02*
X010930Y032665D01*
X010930Y031685D02*
X010930Y031165D01*
X011930Y031165D02*
X011930Y031685D01*
X011930Y032665D02*
X011930Y033185D01*
X012930Y033185D02*
X012930Y032665D01*
X012930Y031685D02*
X012930Y031165D01*
X013930Y032665D02*
X013930Y033185D01*
X014930Y033185D02*
X014930Y032665D01*
X015930Y032665D02*
X015930Y033185D01*
X016930Y033185D02*
X016930Y032665D01*
X016930Y027185D02*
X016930Y026665D01*
D12*
X016930Y025675D03*
X016930Y023675D03*
X017055Y028050D03*
X016430Y028050D03*
X016430Y030050D03*
X017055Y030050D03*
X017680Y030050D03*
X016930Y031425D03*
X017680Y028050D03*
X014930Y031425D03*
X016930Y010550D03*
X016930Y008550D03*
D13*
X016587Y008900D02*
X016727Y009040D01*
X017133Y009040D01*
X017420Y008753D01*
X017420Y008347D01*
X017133Y008060D01*
X016727Y008060D01*
X016587Y008200D01*
X016420Y008200D01*
X016420Y008193D01*
X016345Y008012D01*
X016280Y007947D01*
X016280Y007855D01*
X016227Y007727D01*
X016128Y007628D01*
X014280Y005780D01*
X014280Y005305D01*
X014325Y005305D01*
X014460Y005170D01*
X014460Y005136D01*
X014462Y005144D01*
X014486Y005186D01*
X014519Y005219D01*
X014561Y005243D01*
X014606Y005255D01*
X014860Y005255D01*
X014860Y004800D01*
X015000Y004800D01*
X015000Y005255D01*
X015254Y005255D01*
X015299Y005243D01*
X015325Y005228D01*
X015325Y006395D01*
X015398Y006572D01*
X015533Y006707D01*
X015710Y006780D01*
X016525Y006780D01*
X016640Y006733D01*
X016640Y006921D01*
X016604Y006957D01*
X016545Y007098D01*
X016545Y007252D01*
X016604Y007393D01*
X016712Y007501D01*
X016853Y007560D01*
X017007Y007560D01*
X017148Y007501D01*
X017256Y007393D01*
X017315Y007252D01*
X017315Y007098D01*
X017256Y006957D01*
X017220Y006921D01*
X017220Y005305D01*
X017325Y005305D01*
X017430Y005200D01*
X017515Y005285D01*
X017515Y012546D01*
X017479Y012582D01*
X017420Y012723D01*
X017420Y012877D01*
X017479Y013018D01*
X017587Y013126D01*
X017728Y013185D01*
X017882Y013185D01*
X018023Y013126D01*
X018131Y013018D01*
X018190Y012877D01*
X018190Y012723D01*
X018131Y012582D01*
X018095Y012546D01*
X018095Y005305D01*
X018200Y005305D01*
X018200Y015070D01*
X017460Y015070D01*
X017283Y015143D01*
X017148Y015278D01*
X017075Y015455D01*
X017075Y015820D01*
X016835Y015820D01*
X016658Y015893D01*
X016523Y016028D01*
X016450Y016205D01*
X016450Y018145D01*
X016523Y018322D01*
X016658Y018457D01*
X016835Y018530D01*
X017075Y018530D01*
X017075Y022145D01*
X017148Y022322D01*
X017283Y022457D01*
X017460Y022530D01*
X018200Y022530D01*
X018200Y034570D01*
X000660Y034570D01*
X000660Y022530D01*
X001400Y022530D01*
X001577Y022457D01*
X001712Y022322D01*
X001785Y022145D01*
X001785Y018530D01*
X002025Y018530D01*
X002202Y018457D01*
X002337Y018322D01*
X002410Y018145D01*
X002410Y016205D01*
X002337Y016028D01*
X002202Y015893D01*
X002025Y015820D01*
X001785Y015820D01*
X001785Y015455D01*
X001712Y015278D01*
X001577Y015143D01*
X001400Y015070D01*
X000660Y015070D01*
X000660Y005305D01*
X000765Y005305D01*
X000765Y009233D01*
X000809Y009339D01*
X000891Y009421D01*
X000891Y009421D01*
X001434Y009964D01*
X001434Y009964D01*
X001516Y010046D01*
X001622Y010090D01*
X001801Y010090D01*
X001837Y010126D01*
X001978Y010185D01*
X002132Y010185D01*
X002273Y010126D01*
X002381Y010018D01*
X002440Y009877D01*
X002440Y009723D01*
X002381Y009582D01*
X002273Y009474D01*
X002132Y009415D01*
X001978Y009415D01*
X001837Y009474D01*
X001801Y009510D01*
X001800Y009510D01*
X001345Y009055D01*
X001345Y005285D01*
X001430Y005200D01*
X001535Y005305D01*
X001950Y005305D01*
X001950Y006395D01*
X002023Y006572D01*
X002158Y006707D01*
X002335Y006780D01*
X003150Y006780D01*
X003327Y006707D01*
X003462Y006572D01*
X003535Y006395D01*
X003535Y005305D01*
X003640Y005305D01*
X003640Y006430D01*
X002766Y007304D01*
X002684Y007386D01*
X002640Y007492D01*
X002640Y007887D01*
X002515Y008012D01*
X002440Y008193D01*
X002440Y008907D01*
X002515Y009088D01*
X002640Y009213D01*
X002640Y012858D01*
X002684Y012964D01*
X003140Y013420D01*
X003140Y013903D01*
X003099Y013882D01*
X003033Y013861D01*
X002965Y013850D01*
X002930Y013850D01*
X002930Y014550D01*
X002930Y014550D01*
X002930Y015250D01*
X002965Y015250D01*
X003033Y015239D01*
X003099Y015218D01*
X003140Y015197D01*
X003140Y020930D01*
X001766Y022304D01*
X001684Y022386D01*
X001640Y022492D01*
X001640Y026262D01*
X001515Y026387D01*
X001440Y026568D01*
X001440Y027282D01*
X001515Y027463D01*
X001652Y027600D01*
X001833Y027675D01*
X002027Y027675D01*
X002140Y027628D01*
X002140Y027778D01*
X002099Y027757D01*
X002033Y027736D01*
X001965Y027725D01*
X001930Y027725D01*
X001930Y028425D01*
X001930Y028425D01*
X001930Y029125D01*
X001965Y029125D01*
X002033Y029114D01*
X002099Y029093D01*
X002140Y029072D01*
X002140Y030722D01*
X002027Y030675D01*
X001833Y030675D01*
X001652Y030750D01*
X001515Y030887D01*
X001440Y031068D01*
X001440Y031782D01*
X001515Y031963D01*
X001652Y032100D01*
X001833Y032175D01*
X002027Y032175D01*
X002140Y032128D01*
X002140Y032278D01*
X002099Y032257D01*
X002033Y032236D01*
X001965Y032225D01*
X001930Y032225D01*
X001930Y032925D01*
X001930Y032925D01*
X001930Y033625D01*
X001965Y033625D01*
X002033Y033614D01*
X002099Y033593D01*
X002161Y033561D01*
X002217Y033521D01*
X002266Y033472D01*
X002306Y033416D01*
X002338Y033354D01*
X002359Y033288D01*
X002370Y033220D01*
X002370Y032925D01*
X001930Y032925D01*
X001930Y032925D01*
X001930Y032925D01*
X001930Y032925D01*
X001490Y032925D01*
X001490Y033220D01*
X001501Y033288D01*
X001522Y033354D01*
X001554Y033416D01*
X001594Y033472D01*
X001643Y033521D01*
X001699Y033561D01*
X001761Y033593D01*
X001827Y033614D01*
X001895Y033625D01*
X001930Y033625D01*
X001930Y032925D01*
X002370Y032925D01*
X002370Y032775D01*
X002440Y032845D01*
X002440Y033282D01*
X002515Y033463D01*
X002652Y033600D01*
X002833Y033675D01*
X003027Y033675D01*
X003208Y033600D01*
X003345Y033463D01*
X003420Y033282D01*
X003420Y032825D01*
X003440Y032845D01*
X003440Y033282D01*
X003515Y033463D01*
X003652Y033600D01*
X003833Y033675D01*
X004027Y033675D01*
X004208Y033600D01*
X004345Y033463D01*
X004420Y033282D01*
X004420Y032825D01*
X004440Y032845D01*
X004440Y033282D01*
X004515Y033463D01*
X004652Y033600D01*
X004833Y033675D01*
X005027Y033675D01*
X005208Y033600D01*
X005345Y033463D01*
X005420Y033282D01*
X005420Y032825D01*
X005440Y032845D01*
X005440Y033282D01*
X005515Y033463D01*
X005652Y033600D01*
X005833Y033675D01*
X006027Y033675D01*
X006208Y033600D01*
X006345Y033463D01*
X006420Y033282D01*
X006420Y032825D01*
X006440Y032845D01*
X006440Y033282D01*
X006515Y033463D01*
X006652Y033600D01*
X006833Y033675D01*
X007027Y033675D01*
X007208Y033600D01*
X007345Y033463D01*
X007420Y033282D01*
X007420Y032825D01*
X007440Y032845D01*
X007440Y033282D01*
X007515Y033463D01*
X007652Y033600D01*
X007833Y033675D01*
X008027Y033675D01*
X008208Y033600D01*
X008345Y033463D01*
X008420Y033282D01*
X008420Y032825D01*
X008440Y032845D01*
X008440Y033282D01*
X008515Y033463D01*
X008652Y033600D01*
X008833Y033675D01*
X009027Y033675D01*
X009208Y033600D01*
X009345Y033463D01*
X009420Y033282D01*
X009420Y032825D01*
X009440Y032845D01*
X009440Y033282D01*
X009515Y033463D01*
X009652Y033600D01*
X009833Y033675D01*
X010027Y033675D01*
X010208Y033600D01*
X010345Y033463D01*
X010420Y033282D01*
X010420Y032568D01*
X010345Y032387D01*
X010208Y032250D01*
X010027Y032175D01*
X009833Y032175D01*
X009720Y032222D01*
X009720Y032128D01*
X009833Y032175D01*
X010027Y032175D01*
X010208Y032100D01*
X010345Y031963D01*
X010420Y031782D01*
X010420Y031068D01*
X010345Y030887D01*
X010208Y030750D01*
X010027Y030675D01*
X009833Y030675D01*
X009720Y030722D01*
X009720Y029072D01*
X009761Y029093D01*
X009827Y029114D01*
X009895Y029125D01*
X009930Y029125D01*
X009930Y028425D01*
X009930Y028425D01*
X010370Y028425D01*
X010370Y028720D01*
X010359Y028788D01*
X010338Y028854D01*
X010306Y028916D01*
X010266Y028972D01*
X010217Y029021D01*
X010161Y029061D01*
X010099Y029093D01*
X010033Y029114D01*
X009965Y029125D01*
X009930Y029125D01*
X009930Y028425D01*
X009930Y028425D01*
X010370Y028425D01*
X010370Y028130D01*
X010359Y028062D01*
X010338Y027996D01*
X010306Y027934D01*
X010266Y027878D01*
X010217Y027829D01*
X010161Y027789D01*
X010099Y027757D01*
X010033Y027736D01*
X009965Y027725D01*
X009930Y027725D01*
X009930Y028425D01*
X009930Y028425D01*
X009930Y027725D01*
X009895Y027725D01*
X009827Y027736D01*
X009761Y027757D01*
X009720Y027778D01*
X009720Y027628D01*
X009833Y027675D01*
X010027Y027675D01*
X010208Y027600D01*
X010345Y027463D01*
X010420Y027282D01*
X010420Y026568D01*
X010345Y026387D01*
X010208Y026250D01*
X010027Y026175D01*
X009833Y026175D01*
X009720Y026222D01*
X009720Y026054D01*
X009756Y026018D01*
X009815Y025877D01*
X009815Y025723D01*
X009756Y025582D01*
X009648Y025474D01*
X009507Y025415D01*
X009353Y025415D01*
X009212Y025474D01*
X009104Y025582D01*
X009045Y025723D01*
X009045Y025877D01*
X009104Y026018D01*
X009140Y026054D01*
X009140Y026222D01*
X009027Y026175D01*
X008833Y026175D01*
X008720Y026222D01*
X008720Y026054D01*
X008756Y026018D01*
X008815Y025877D01*
X008815Y025723D01*
X008756Y025582D01*
X008648Y025474D01*
X008507Y025415D01*
X008353Y025415D01*
X008212Y025474D01*
X008104Y025582D01*
X008045Y025723D01*
X008045Y025877D01*
X008104Y026018D01*
X008140Y026054D01*
X008140Y026222D01*
X008027Y026175D01*
X007833Y026175D01*
X007720Y026222D01*
X007720Y026054D01*
X007756Y026018D01*
X007815Y025877D01*
X007815Y025723D01*
X007756Y025582D01*
X007648Y025474D01*
X007507Y025415D01*
X007353Y025415D01*
X007212Y025474D01*
X007104Y025582D01*
X007045Y025723D01*
X007045Y025877D01*
X007104Y026018D01*
X007140Y026054D01*
X007140Y026222D01*
X007027Y026175D01*
X006833Y026175D01*
X006720Y026222D01*
X006720Y022670D01*
X008176Y021214D01*
X008220Y021108D01*
X008220Y019880D01*
X008353Y019935D01*
X008507Y019935D01*
X008648Y019876D01*
X008756Y019768D01*
X008815Y019627D01*
X008815Y019544D01*
X008853Y019560D01*
X009007Y019560D01*
X009148Y019501D01*
X009256Y019393D01*
X009315Y019252D01*
X009315Y019169D01*
X009353Y019185D01*
X009507Y019185D01*
X009640Y019130D01*
X009640Y019671D01*
X009604Y019707D01*
X009545Y019848D01*
X009545Y020002D01*
X009604Y020143D01*
X009712Y020251D01*
X009853Y020310D01*
X010007Y020310D01*
X010140Y020255D01*
X010140Y020421D01*
X010104Y020457D01*
X010045Y020598D01*
X010045Y020752D01*
X010104Y020893D01*
X010212Y021001D01*
X010353Y021060D01*
X010507Y021060D01*
X010648Y021001D01*
X010756Y020893D01*
X010815Y020752D01*
X010815Y020669D01*
X010853Y020685D01*
X011007Y020685D01*
X011140Y020630D01*
X011140Y022208D01*
X011112Y022103D01*
X010874Y021692D01*
X010538Y021356D01*
X010127Y021118D01*
X009668Y020995D01*
X009192Y020995D01*
X008733Y021118D01*
X008322Y021356D01*
X007986Y021692D01*
X007748Y022103D01*
X007625Y022562D01*
X007625Y023038D01*
X007748Y023497D01*
X007986Y023908D01*
X008322Y024244D01*
X008733Y024482D01*
X009192Y024605D01*
X009668Y024605D01*
X010127Y024482D01*
X010538Y024244D01*
X010874Y023908D01*
X011112Y023497D01*
X011140Y023392D01*
X011140Y025430D01*
X010766Y025804D01*
X010684Y025886D01*
X010640Y025992D01*
X010640Y026262D01*
X010515Y026387D01*
X010440Y026568D01*
X010440Y027282D01*
X010515Y027463D01*
X010652Y027600D01*
X010833Y027675D01*
X011027Y027675D01*
X011140Y027628D01*
X011140Y027722D01*
X011027Y027675D01*
X010833Y027675D01*
X010652Y027750D01*
X010515Y027887D01*
X010440Y028068D01*
X010440Y028782D01*
X010515Y028963D01*
X010652Y029100D01*
X010833Y029175D01*
X011027Y029175D01*
X011140Y029128D01*
X011140Y030722D01*
X011027Y030675D01*
X010833Y030675D01*
X010652Y030750D01*
X010515Y030887D01*
X010440Y031068D01*
X010440Y031782D01*
X010515Y031963D01*
X010652Y032100D01*
X010833Y032175D01*
X011027Y032175D01*
X011140Y032128D01*
X011140Y032222D01*
X011027Y032175D01*
X010833Y032175D01*
X010652Y032250D01*
X010515Y032387D01*
X010440Y032568D01*
X010440Y033282D01*
X010515Y033463D01*
X010652Y033600D01*
X010833Y033675D01*
X011027Y033675D01*
X011208Y033600D01*
X011345Y033463D01*
X011420Y033282D01*
X011420Y032845D01*
X011440Y032825D01*
X011440Y033282D01*
X011515Y033463D01*
X011652Y033600D01*
X011833Y033675D01*
X012027Y033675D01*
X012208Y033600D01*
X012345Y033463D01*
X012420Y033282D01*
X012420Y032845D01*
X012440Y032825D01*
X012440Y033282D01*
X012515Y033463D01*
X012652Y033600D01*
X012833Y033675D01*
X013027Y033675D01*
X013208Y033600D01*
X013345Y033463D01*
X013420Y033282D01*
X013420Y032845D01*
X013440Y032825D01*
X013440Y033282D01*
X013515Y033463D01*
X013652Y033600D01*
X013833Y033675D01*
X014027Y033675D01*
X014208Y033600D01*
X014345Y033463D01*
X014420Y033282D01*
X014420Y032568D01*
X014345Y032387D01*
X014220Y032262D01*
X014220Y031045D01*
X014676Y030589D01*
X014720Y030483D01*
X014720Y027628D01*
X014833Y027675D01*
X015027Y027675D01*
X015140Y027628D01*
X015140Y029671D01*
X015104Y029707D01*
X015045Y029848D01*
X015045Y030002D01*
X015104Y030143D01*
X015212Y030251D01*
X015353Y030310D01*
X015507Y030310D01*
X015580Y030280D01*
X015580Y030905D01*
X015410Y031075D01*
X015273Y031075D01*
X015133Y030935D01*
X014727Y030935D01*
X014440Y031222D01*
X014440Y031628D01*
X014727Y031915D01*
X015133Y031915D01*
X015273Y031775D01*
X015625Y031775D01*
X015753Y031722D01*
X015852Y031623D01*
X016227Y031248D01*
X016280Y031120D01*
X016280Y030540D01*
X016633Y030540D01*
X016742Y030430D01*
X016852Y030540D01*
X017258Y030540D01*
X017367Y030430D01*
X017477Y030540D01*
X017883Y030540D01*
X018170Y030253D01*
X018170Y029847D01*
X017883Y029560D01*
X017477Y029560D01*
X017367Y029670D01*
X017258Y029560D01*
X016852Y029560D01*
X016742Y029670D01*
X016633Y029560D01*
X016280Y029560D01*
X016280Y028540D01*
X016633Y028540D01*
X016742Y028430D01*
X016852Y028540D01*
X017258Y028540D01*
X017367Y028430D01*
X017477Y028540D01*
X017883Y028540D01*
X018170Y028253D01*
X018170Y027847D01*
X017883Y027560D01*
X017477Y027560D01*
X017367Y027670D01*
X017258Y027560D01*
X017248Y027560D01*
X017345Y027463D01*
X017420Y027282D01*
X017420Y026568D01*
X017345Y026387D01*
X017280Y026322D01*
X017280Y026018D01*
X017420Y025878D01*
X017420Y025472D01*
X017133Y025185D01*
X016727Y025185D01*
X016440Y025472D01*
X016440Y025878D01*
X016580Y026018D01*
X016580Y026322D01*
X016515Y026387D01*
X016440Y026568D01*
X016440Y026575D01*
X016420Y026575D01*
X016420Y026568D01*
X016345Y026387D01*
X016280Y026322D01*
X016280Y015153D01*
X016345Y015088D01*
X016420Y014907D01*
X016420Y014193D01*
X016345Y014012D01*
X016280Y013947D01*
X016280Y009153D01*
X016345Y009088D01*
X016420Y008907D01*
X016420Y008900D01*
X016587Y008900D01*
X016362Y009049D02*
X017515Y009049D01*
X017515Y009207D02*
X016280Y009207D01*
X016280Y009366D02*
X017515Y009366D01*
X017515Y009524D02*
X016280Y009524D01*
X016280Y009683D02*
X017515Y009683D01*
X017515Y009841D02*
X016280Y009841D01*
X016280Y010000D02*
X017515Y010000D01*
X017515Y010158D02*
X017160Y010158D01*
X017112Y010110D02*
X017370Y010368D01*
X017370Y010550D01*
X017370Y010732D01*
X017112Y010990D01*
X016930Y010990D01*
X016930Y010550D01*
X016930Y010550D01*
X017370Y010550D01*
X016930Y010550D01*
X016930Y010550D01*
X016930Y010550D01*
X016490Y010550D01*
X016490Y010732D01*
X016748Y010990D01*
X016930Y010990D01*
X016930Y010550D01*
X016930Y010110D01*
X017112Y010110D01*
X016930Y010110D02*
X016930Y010550D01*
X016930Y010550D01*
X016490Y010550D01*
X016490Y010368D01*
X016748Y010110D01*
X016930Y010110D01*
X016930Y010158D02*
X016930Y010158D01*
X016930Y010317D02*
X016930Y010317D01*
X016930Y010475D02*
X016930Y010475D01*
X016930Y010634D02*
X016930Y010634D01*
X016930Y010792D02*
X016930Y010792D01*
X016930Y010951D02*
X016930Y010951D01*
X017152Y010951D02*
X017515Y010951D01*
X017515Y011109D02*
X016280Y011109D01*
X016280Y010951D02*
X016708Y010951D01*
X016550Y010792D02*
X016280Y010792D01*
X016280Y010634D02*
X016490Y010634D01*
X016490Y010475D02*
X016280Y010475D01*
X016280Y010317D02*
X016541Y010317D01*
X016700Y010158D02*
X016280Y010158D01*
X016280Y011268D02*
X017515Y011268D01*
X017515Y011426D02*
X016280Y011426D01*
X016280Y011585D02*
X017515Y011585D01*
X017515Y011743D02*
X016280Y011743D01*
X016280Y011902D02*
X017515Y011902D01*
X017515Y012060D02*
X016280Y012060D01*
X016280Y012219D02*
X017515Y012219D01*
X017515Y012377D02*
X016280Y012377D01*
X016280Y012536D02*
X017515Y012536D01*
X017432Y012694D02*
X016280Y012694D01*
X016280Y012853D02*
X017420Y012853D01*
X017476Y013011D02*
X016280Y013011D01*
X016280Y013170D02*
X017691Y013170D01*
X017919Y013170D02*
X018200Y013170D01*
X018200Y013328D02*
X016280Y013328D01*
X016280Y013487D02*
X018200Y013487D01*
X018200Y013645D02*
X016280Y013645D01*
X016280Y013804D02*
X018200Y013804D01*
X018200Y013962D02*
X016295Y013962D01*
X016390Y014121D02*
X018200Y014121D01*
X018200Y014279D02*
X016420Y014279D01*
X016420Y014438D02*
X018200Y014438D01*
X018200Y014596D02*
X016420Y014596D01*
X016420Y014755D02*
X018200Y014755D01*
X018200Y014913D02*
X016418Y014913D01*
X016352Y015072D02*
X017456Y015072D01*
X017196Y015230D02*
X016280Y015230D01*
X016280Y015389D02*
X017102Y015389D01*
X017075Y015547D02*
X016280Y015547D01*
X016280Y015706D02*
X017075Y015706D01*
X016728Y015864D02*
X016280Y015864D01*
X016280Y016023D02*
X016529Y016023D01*
X016460Y016181D02*
X016280Y016181D01*
X016280Y016340D02*
X016450Y016340D01*
X016450Y016498D02*
X016280Y016498D01*
X016280Y016657D02*
X016450Y016657D01*
X016450Y016815D02*
X016280Y016815D01*
X016280Y016974D02*
X016450Y016974D01*
X016450Y017132D02*
X016280Y017132D01*
X016280Y017291D02*
X016450Y017291D01*
X016450Y017449D02*
X016280Y017449D01*
X016280Y017608D02*
X016450Y017608D01*
X016450Y017766D02*
X016280Y017766D01*
X016280Y017925D02*
X016450Y017925D01*
X016450Y018083D02*
X016280Y018083D01*
X016280Y018242D02*
X016490Y018242D01*
X016601Y018400D02*
X016280Y018400D01*
X016280Y018559D02*
X017075Y018559D01*
X017075Y018717D02*
X016280Y018717D01*
X016280Y018876D02*
X017075Y018876D01*
X017075Y019034D02*
X016280Y019034D01*
X016280Y019193D02*
X017075Y019193D01*
X017075Y019351D02*
X016280Y019351D01*
X016280Y019510D02*
X017075Y019510D01*
X017075Y019668D02*
X016280Y019668D01*
X016280Y019827D02*
X017075Y019827D01*
X017075Y019985D02*
X016280Y019985D01*
X016280Y020144D02*
X017075Y020144D01*
X017075Y020302D02*
X016280Y020302D01*
X016280Y020461D02*
X017075Y020461D01*
X017075Y020619D02*
X016280Y020619D01*
X016280Y020778D02*
X017075Y020778D01*
X017075Y020936D02*
X016280Y020936D01*
X016280Y021095D02*
X017075Y021095D01*
X017075Y021253D02*
X016280Y021253D01*
X016280Y021412D02*
X017075Y021412D01*
X017075Y021570D02*
X016280Y021570D01*
X016280Y021729D02*
X017075Y021729D01*
X017075Y021887D02*
X016280Y021887D01*
X016280Y022046D02*
X017075Y022046D01*
X017099Y022204D02*
X016280Y022204D01*
X016280Y022363D02*
X017189Y022363D01*
X017438Y022521D02*
X016280Y022521D01*
X016280Y022680D02*
X018200Y022680D01*
X018200Y022838D02*
X016280Y022838D01*
X016280Y022997D02*
X018200Y022997D01*
X018200Y023155D02*
X016280Y023155D01*
X016280Y023314D02*
X016669Y023314D01*
X016748Y023235D02*
X016490Y023493D01*
X016490Y023675D01*
X016930Y023675D01*
X016930Y023675D01*
X016930Y024115D01*
X017112Y024115D01*
X017370Y023857D01*
X017370Y023675D01*
X016930Y023675D01*
X016930Y023675D01*
X016930Y023675D01*
X016930Y024115D01*
X016748Y024115D01*
X016490Y023857D01*
X016490Y023675D01*
X016930Y023675D01*
X017370Y023675D01*
X017370Y023493D01*
X017112Y023235D01*
X016930Y023235D01*
X016930Y023675D01*
X016930Y023675D01*
X016930Y023235D01*
X016748Y023235D01*
X016930Y023314D02*
X016930Y023314D01*
X016930Y023472D02*
X016930Y023472D01*
X016930Y023631D02*
X016930Y023631D01*
X016930Y023789D02*
X016930Y023789D01*
X016930Y023948D02*
X016930Y023948D01*
X016930Y024106D02*
X016930Y024106D01*
X017121Y024106D02*
X018200Y024106D01*
X018200Y023948D02*
X017280Y023948D01*
X017370Y023789D02*
X018200Y023789D01*
X018200Y023631D02*
X017370Y023631D01*
X017349Y023472D02*
X018200Y023472D01*
X018200Y023314D02*
X017191Y023314D01*
X016739Y024106D02*
X016280Y024106D01*
X016280Y023948D02*
X016580Y023948D01*
X016490Y023789D02*
X016280Y023789D01*
X016280Y023631D02*
X016490Y023631D01*
X016511Y023472D02*
X016280Y023472D01*
X016280Y024265D02*
X018200Y024265D01*
X018200Y024423D02*
X016280Y024423D01*
X016280Y024582D02*
X018200Y024582D01*
X018200Y024740D02*
X016280Y024740D01*
X016280Y024899D02*
X018200Y024899D01*
X018200Y025057D02*
X016280Y025057D01*
X016280Y025216D02*
X016696Y025216D01*
X016538Y025374D02*
X016280Y025374D01*
X016280Y025533D02*
X016440Y025533D01*
X016440Y025691D02*
X016280Y025691D01*
X016280Y025850D02*
X016440Y025850D01*
X016570Y026008D02*
X016280Y026008D01*
X016280Y026167D02*
X016580Y026167D01*
X016577Y026325D02*
X016283Y026325D01*
X016385Y026484D02*
X016475Y026484D01*
X017163Y025216D02*
X018200Y025216D01*
X018200Y025374D02*
X017322Y025374D01*
X017420Y025533D02*
X018200Y025533D01*
X018200Y025691D02*
X017420Y025691D01*
X017420Y025850D02*
X018200Y025850D01*
X018200Y026008D02*
X017290Y026008D01*
X017280Y026167D02*
X018200Y026167D01*
X018200Y026325D02*
X017283Y026325D01*
X017385Y026484D02*
X018200Y026484D01*
X018200Y026642D02*
X017420Y026642D01*
X017420Y026801D02*
X018200Y026801D01*
X018200Y026959D02*
X017420Y026959D01*
X017420Y027118D02*
X018200Y027118D01*
X018200Y027276D02*
X017420Y027276D01*
X017357Y027435D02*
X018200Y027435D01*
X018200Y027593D02*
X017916Y027593D01*
X018075Y027752D02*
X018200Y027752D01*
X018200Y027910D02*
X018170Y027910D01*
X018170Y028069D02*
X018200Y028069D01*
X018200Y028227D02*
X018170Y028227D01*
X018200Y028386D02*
X018037Y028386D01*
X018200Y028544D02*
X016280Y028544D01*
X016280Y028703D02*
X018200Y028703D01*
X018200Y028861D02*
X016280Y028861D01*
X016280Y029020D02*
X018200Y029020D01*
X018200Y029178D02*
X016280Y029178D01*
X016280Y029337D02*
X018200Y029337D01*
X018200Y029495D02*
X016280Y029495D01*
X016727Y029654D02*
X016758Y029654D01*
X016727Y030446D02*
X016758Y030446D01*
X016748Y030985D02*
X016930Y030985D01*
X017112Y030985D01*
X017370Y031243D01*
X017370Y031425D01*
X017370Y031607D01*
X017112Y031865D01*
X016930Y031865D01*
X016930Y031425D01*
X017370Y031425D01*
X016930Y031425D01*
X016930Y031425D01*
X016930Y031425D01*
X016930Y030985D01*
X016930Y031425D01*
X016930Y031425D01*
X016930Y031425D01*
X016490Y031425D01*
X016490Y031607D01*
X016748Y031865D01*
X016930Y031865D01*
X016930Y031425D01*
X016490Y031425D01*
X016490Y031243D01*
X016748Y030985D01*
X016653Y031080D02*
X016280Y031080D01*
X016280Y030922D02*
X018200Y030922D01*
X018200Y031080D02*
X017207Y031080D01*
X017366Y031239D02*
X018200Y031239D01*
X018200Y031397D02*
X017370Y031397D01*
X017370Y031556D02*
X018200Y031556D01*
X018200Y031714D02*
X017263Y031714D01*
X016930Y031714D02*
X016930Y031714D01*
X016930Y031556D02*
X016930Y031556D01*
X016930Y031397D02*
X016930Y031397D01*
X016930Y031239D02*
X016930Y031239D01*
X016930Y031080D02*
X016930Y031080D01*
X016597Y031714D02*
X015761Y031714D01*
X015919Y031556D02*
X016490Y031556D01*
X016490Y031397D02*
X016078Y031397D01*
X016231Y031239D02*
X016494Y031239D01*
X016280Y030763D02*
X018200Y030763D01*
X018200Y030605D02*
X016280Y030605D01*
X015580Y030605D02*
X014661Y030605D01*
X014720Y030446D02*
X015580Y030446D01*
X015580Y030288D02*
X015561Y030288D01*
X015299Y030288D02*
X014720Y030288D01*
X014720Y030129D02*
X015098Y030129D01*
X015045Y029971D02*
X014720Y029971D01*
X014720Y029812D02*
X015060Y029812D01*
X015140Y029654D02*
X014720Y029654D01*
X014720Y029495D02*
X015140Y029495D01*
X015140Y029337D02*
X014720Y029337D01*
X014720Y029178D02*
X015140Y029178D01*
X015140Y029020D02*
X014720Y029020D01*
X014720Y028861D02*
X015140Y028861D01*
X015140Y028703D02*
X014720Y028703D01*
X014720Y028544D02*
X015140Y028544D01*
X015140Y028386D02*
X014720Y028386D01*
X014720Y028227D02*
X015140Y028227D01*
X015140Y028069D02*
X014720Y028069D01*
X014720Y027910D02*
X015140Y027910D01*
X015140Y027752D02*
X014720Y027752D01*
X014502Y030763D02*
X015580Y030763D01*
X015563Y030922D02*
X014344Y030922D01*
X014220Y031080D02*
X014582Y031080D01*
X014440Y031239D02*
X014220Y031239D01*
X014220Y031397D02*
X014440Y031397D01*
X014440Y031556D02*
X014220Y031556D01*
X014220Y031714D02*
X014526Y031714D01*
X014685Y031873D02*
X014220Y031873D01*
X014220Y032031D02*
X018200Y032031D01*
X018200Y031873D02*
X015175Y031873D01*
X015063Y032190D02*
X015797Y032190D01*
X015833Y032175D02*
X016027Y032175D01*
X016208Y032250D01*
X016345Y032387D01*
X016420Y032568D01*
X016420Y033282D01*
X016345Y033463D01*
X016208Y033600D01*
X016027Y033675D01*
X015833Y033675D01*
X015652Y033600D01*
X015515Y033463D01*
X015440Y033282D01*
X015440Y032568D01*
X015515Y032387D01*
X015652Y032250D01*
X015833Y032175D01*
X016063Y032190D02*
X016797Y032190D01*
X016833Y032175D02*
X017027Y032175D01*
X017208Y032250D01*
X017345Y032387D01*
X017420Y032568D01*
X017420Y033282D01*
X017345Y033463D01*
X017208Y033600D01*
X017027Y033675D01*
X016833Y033675D01*
X016652Y033600D01*
X016515Y033463D01*
X016440Y033282D01*
X016440Y032568D01*
X016515Y032387D01*
X016652Y032250D01*
X016833Y032175D01*
X017063Y032190D02*
X018200Y032190D01*
X018200Y032348D02*
X017306Y032348D01*
X017395Y032507D02*
X018200Y032507D01*
X018200Y032665D02*
X017420Y032665D01*
X017420Y032824D02*
X018200Y032824D01*
X018200Y032982D02*
X017420Y032982D01*
X017420Y033141D02*
X018200Y033141D01*
X018200Y033299D02*
X017413Y033299D01*
X017347Y033458D02*
X018200Y033458D01*
X018200Y033616D02*
X017170Y033616D01*
X016690Y033616D02*
X016170Y033616D01*
X016347Y033458D02*
X016513Y033458D01*
X016447Y033299D02*
X016413Y033299D01*
X016420Y033141D02*
X016440Y033141D01*
X016440Y032982D02*
X016420Y032982D01*
X016420Y032824D02*
X016440Y032824D01*
X016440Y032665D02*
X016420Y032665D01*
X016395Y032507D02*
X016465Y032507D01*
X016554Y032348D02*
X016306Y032348D01*
X015554Y032348D02*
X015306Y032348D01*
X015345Y032387D02*
X015420Y032568D01*
X015420Y033282D01*
X015345Y033463D01*
X015208Y033600D01*
X015027Y033675D01*
X014833Y033675D01*
X014652Y033600D01*
X014515Y033463D01*
X014440Y033282D01*
X014440Y032568D01*
X014515Y032387D01*
X014652Y032250D01*
X014833Y032175D01*
X015027Y032175D01*
X015208Y032250D01*
X015345Y032387D01*
X015395Y032507D02*
X015465Y032507D01*
X015440Y032665D02*
X015420Y032665D01*
X015420Y032824D02*
X015440Y032824D01*
X015440Y032982D02*
X015420Y032982D01*
X015420Y033141D02*
X015440Y033141D01*
X015447Y033299D02*
X015413Y033299D01*
X015347Y033458D02*
X015513Y033458D01*
X015690Y033616D02*
X015170Y033616D01*
X014690Y033616D02*
X014170Y033616D01*
X014347Y033458D02*
X014513Y033458D01*
X014447Y033299D02*
X014413Y033299D01*
X014420Y033141D02*
X014440Y033141D01*
X014440Y032982D02*
X014420Y032982D01*
X014420Y032824D02*
X014440Y032824D01*
X014440Y032665D02*
X014420Y032665D01*
X014395Y032507D02*
X014465Y032507D01*
X014554Y032348D02*
X014306Y032348D01*
X014220Y032190D02*
X014797Y032190D01*
X013690Y033616D02*
X013170Y033616D01*
X013347Y033458D02*
X013513Y033458D01*
X013447Y033299D02*
X013413Y033299D01*
X013420Y033141D02*
X013440Y033141D01*
X013440Y032982D02*
X013420Y032982D01*
X012690Y033616D02*
X012170Y033616D01*
X012347Y033458D02*
X012513Y033458D01*
X012447Y033299D02*
X012413Y033299D01*
X012420Y033141D02*
X012440Y033141D01*
X012440Y032982D02*
X012420Y032982D01*
X012140Y032222D02*
X012140Y032072D01*
X012099Y032093D01*
X012033Y032114D01*
X011965Y032125D01*
X011930Y032125D01*
X011930Y031425D01*
X011930Y031425D01*
X011930Y032125D01*
X011895Y032125D01*
X011827Y032114D01*
X011761Y032093D01*
X011720Y032072D01*
X011720Y032222D01*
X011833Y032175D01*
X012027Y032175D01*
X012140Y032222D01*
X012140Y032190D02*
X012063Y032190D01*
X011930Y032031D02*
X011930Y032031D01*
X011930Y031873D02*
X011930Y031873D01*
X011930Y031714D02*
X011930Y031714D01*
X011930Y031556D02*
X011930Y031556D01*
X011930Y031425D02*
X011930Y030725D01*
X011965Y030725D01*
X012033Y030736D01*
X012099Y030757D01*
X012140Y030778D01*
X012140Y029128D01*
X012027Y029175D01*
X011833Y029175D01*
X011720Y029128D01*
X011720Y030778D01*
X011761Y030757D01*
X011827Y030736D01*
X011895Y030725D01*
X011930Y030725D01*
X011930Y031425D01*
X011930Y031425D01*
X011930Y031397D02*
X011930Y031397D01*
X011930Y031239D02*
X011930Y031239D01*
X011930Y031080D02*
X011930Y031080D01*
X011930Y030922D02*
X011930Y030922D01*
X011930Y030763D02*
X011930Y030763D01*
X012110Y030763D02*
X012140Y030763D01*
X012140Y030605D02*
X011720Y030605D01*
X011720Y030763D02*
X011750Y030763D01*
X011720Y030446D02*
X012140Y030446D01*
X012140Y030288D02*
X011720Y030288D01*
X011720Y030129D02*
X012140Y030129D01*
X012140Y029971D02*
X011720Y029971D01*
X011720Y029812D02*
X012140Y029812D01*
X012140Y029654D02*
X011720Y029654D01*
X011720Y029495D02*
X012140Y029495D01*
X012140Y029337D02*
X011720Y029337D01*
X011720Y029178D02*
X012140Y029178D01*
X011140Y029178D02*
X009720Y029178D01*
X009720Y029337D02*
X011140Y029337D01*
X011140Y029495D02*
X009720Y029495D01*
X009720Y029654D02*
X011140Y029654D01*
X011140Y029812D02*
X009720Y029812D01*
X009720Y029971D02*
X011140Y029971D01*
X011140Y030129D02*
X009720Y030129D01*
X009720Y030288D02*
X011140Y030288D01*
X011140Y030446D02*
X009720Y030446D01*
X009720Y030605D02*
X011140Y030605D01*
X010639Y030763D02*
X010221Y030763D01*
X010360Y030922D02*
X010500Y030922D01*
X010440Y031080D02*
X010420Y031080D01*
X010420Y031239D02*
X010440Y031239D01*
X010440Y031397D02*
X010420Y031397D01*
X010420Y031556D02*
X010440Y031556D01*
X010440Y031714D02*
X010420Y031714D01*
X010383Y031873D02*
X010477Y031873D01*
X010583Y032031D02*
X010277Y032031D01*
X010063Y032190D02*
X010797Y032190D01*
X010554Y032348D02*
X010306Y032348D01*
X010395Y032507D02*
X010465Y032507D01*
X010440Y032665D02*
X010420Y032665D01*
X010420Y032824D02*
X010440Y032824D01*
X010440Y032982D02*
X010420Y032982D01*
X010420Y033141D02*
X010440Y033141D01*
X010447Y033299D02*
X010413Y033299D01*
X010347Y033458D02*
X010513Y033458D01*
X010690Y033616D02*
X010170Y033616D01*
X009690Y033616D02*
X009170Y033616D01*
X009347Y033458D02*
X009513Y033458D01*
X009447Y033299D02*
X009413Y033299D01*
X009420Y033141D02*
X009440Y033141D01*
X009440Y032982D02*
X009420Y032982D01*
X009720Y032190D02*
X009797Y032190D01*
X009140Y030722D02*
X009027Y030675D01*
X008833Y030675D01*
X008720Y030722D01*
X008720Y029072D01*
X008761Y029093D01*
X008827Y029114D01*
X008895Y029125D01*
X008930Y029125D01*
X008930Y028425D01*
X008930Y028425D01*
X008930Y027725D01*
X008965Y027725D01*
X009033Y027736D01*
X009099Y027757D01*
X009140Y027778D01*
X009140Y027628D01*
X009027Y027675D01*
X008833Y027675D01*
X008720Y027628D01*
X008720Y027778D01*
X008761Y027757D01*
X008827Y027736D01*
X008895Y027725D01*
X008930Y027725D01*
X008930Y028425D01*
X008930Y028425D01*
X008930Y029125D01*
X008965Y029125D01*
X009033Y029114D01*
X009099Y029093D01*
X009140Y029072D01*
X009140Y030722D01*
X009140Y030605D02*
X008720Y030605D01*
X008720Y030446D02*
X009140Y030446D01*
X009140Y030288D02*
X008720Y030288D01*
X008720Y030129D02*
X009140Y030129D01*
X009140Y029971D02*
X008720Y029971D01*
X008720Y029812D02*
X009140Y029812D01*
X009140Y029654D02*
X008720Y029654D01*
X008720Y029495D02*
X009140Y029495D01*
X009140Y029337D02*
X008720Y029337D01*
X008720Y029178D02*
X009140Y029178D01*
X008930Y029020D02*
X008930Y029020D01*
X008930Y028861D02*
X008930Y028861D01*
X008930Y028703D02*
X008930Y028703D01*
X008930Y028544D02*
X008930Y028544D01*
X008930Y028386D02*
X008930Y028386D01*
X008930Y028227D02*
X008930Y028227D01*
X008930Y028069D02*
X008930Y028069D01*
X008930Y027910D02*
X008930Y027910D01*
X008930Y027752D02*
X008930Y027752D01*
X009081Y027752D02*
X009140Y027752D01*
X008779Y027752D02*
X008720Y027752D01*
X008140Y027752D02*
X008081Y027752D01*
X008099Y027757D02*
X008140Y027778D01*
X008140Y027628D01*
X008027Y027675D01*
X007833Y027675D01*
X007720Y027628D01*
X007720Y027778D01*
X007761Y027757D01*
X007827Y027736D01*
X007895Y027725D01*
X007930Y027725D01*
X007965Y027725D01*
X008033Y027736D01*
X008099Y027757D01*
X007930Y027752D02*
X007930Y027752D01*
X007930Y027725D02*
X007930Y028425D01*
X007930Y028425D01*
X007930Y029125D01*
X007965Y029125D01*
X008033Y029114D01*
X008099Y029093D01*
X008140Y029072D01*
X008140Y030722D01*
X008027Y030675D01*
X007833Y030675D01*
X007720Y030722D01*
X007720Y029072D01*
X007761Y029093D01*
X007827Y029114D01*
X007895Y029125D01*
X007930Y029125D01*
X007930Y028425D01*
X007930Y028425D01*
X007930Y027725D01*
X007779Y027752D02*
X007720Y027752D01*
X007930Y027910D02*
X007930Y027910D01*
X007930Y028069D02*
X007930Y028069D01*
X007930Y028227D02*
X007930Y028227D01*
X007930Y028386D02*
X007930Y028386D01*
X007930Y028544D02*
X007930Y028544D01*
X007930Y028703D02*
X007930Y028703D01*
X007930Y028861D02*
X007930Y028861D01*
X007930Y029020D02*
X007930Y029020D01*
X007720Y029178D02*
X008140Y029178D01*
X008140Y029337D02*
X007720Y029337D01*
X007720Y029495D02*
X008140Y029495D01*
X008140Y029654D02*
X007720Y029654D01*
X007720Y029812D02*
X008140Y029812D01*
X008140Y029971D02*
X007720Y029971D01*
X007720Y030129D02*
X008140Y030129D01*
X008140Y030288D02*
X007720Y030288D01*
X007720Y030446D02*
X008140Y030446D01*
X008140Y030605D02*
X007720Y030605D01*
X007140Y030605D02*
X006720Y030605D01*
X006720Y030722D02*
X006833Y030675D01*
X007027Y030675D01*
X007140Y030722D01*
X007140Y029072D01*
X007099Y029093D01*
X007033Y029114D01*
X006965Y029125D01*
X006930Y029125D01*
X006930Y028425D01*
X006930Y028425D01*
X006930Y027725D01*
X006965Y027725D01*
X007033Y027736D01*
X007099Y027757D01*
X007140Y027778D01*
X007140Y027628D01*
X007027Y027675D01*
X006833Y027675D01*
X006720Y027628D01*
X006720Y027778D01*
X006761Y027757D01*
X006827Y027736D01*
X006895Y027725D01*
X006930Y027725D01*
X006930Y028425D01*
X006930Y028425D01*
X006930Y029125D01*
X006895Y029125D01*
X006827Y029114D01*
X006761Y029093D01*
X006720Y029072D01*
X006720Y030722D01*
X006720Y030446D02*
X007140Y030446D01*
X007140Y030288D02*
X006720Y030288D01*
X006720Y030129D02*
X007140Y030129D01*
X007140Y029971D02*
X006720Y029971D01*
X006720Y029812D02*
X007140Y029812D01*
X007140Y029654D02*
X006720Y029654D01*
X006720Y029495D02*
X007140Y029495D01*
X007140Y029337D02*
X006720Y029337D01*
X006720Y029178D02*
X007140Y029178D01*
X006930Y029020D02*
X006930Y029020D01*
X006930Y028861D02*
X006930Y028861D01*
X006930Y028703D02*
X006930Y028703D01*
X006930Y028544D02*
X006930Y028544D01*
X006930Y028386D02*
X006930Y028386D01*
X006930Y028227D02*
X006930Y028227D01*
X006930Y028069D02*
X006930Y028069D01*
X006930Y027910D02*
X006930Y027910D01*
X006930Y027752D02*
X006930Y027752D01*
X007081Y027752D02*
X007140Y027752D01*
X006779Y027752D02*
X006720Y027752D01*
X006720Y026167D02*
X007140Y026167D01*
X007099Y026008D02*
X006720Y026008D01*
X006720Y025850D02*
X007045Y025850D01*
X007058Y025691D02*
X006720Y025691D01*
X006720Y025533D02*
X007153Y025533D01*
X006720Y025374D02*
X011140Y025374D01*
X011140Y025216D02*
X006720Y025216D01*
X006720Y025057D02*
X011140Y025057D01*
X011140Y024899D02*
X006720Y024899D01*
X006720Y024740D02*
X011140Y024740D01*
X011140Y024582D02*
X009755Y024582D01*
X010229Y024423D02*
X011140Y024423D01*
X011140Y024265D02*
X010503Y024265D01*
X010677Y024106D02*
X011140Y024106D01*
X011140Y023948D02*
X010835Y023948D01*
X010943Y023789D02*
X011140Y023789D01*
X011140Y023631D02*
X011035Y023631D01*
X011119Y023472D02*
X011140Y023472D01*
X011139Y022204D02*
X011140Y022204D01*
X011140Y022046D02*
X011079Y022046D01*
X011140Y021887D02*
X010987Y021887D01*
X010896Y021729D02*
X011140Y021729D01*
X011140Y021570D02*
X010753Y021570D01*
X010594Y021412D02*
X011140Y021412D01*
X011140Y021253D02*
X010361Y021253D01*
X010147Y020936D02*
X008220Y020936D01*
X008220Y020778D02*
X010056Y020778D01*
X010045Y020619D02*
X008220Y020619D01*
X008220Y020461D02*
X010102Y020461D01*
X010140Y020302D02*
X010026Y020302D01*
X009834Y020302D02*
X008220Y020302D01*
X008220Y020144D02*
X009604Y020144D01*
X009545Y019985D02*
X008220Y019985D01*
X008698Y019827D02*
X009554Y019827D01*
X009640Y019668D02*
X008798Y019668D01*
X009128Y019510D02*
X009640Y019510D01*
X009640Y019351D02*
X009274Y019351D01*
X009315Y019193D02*
X009640Y019193D01*
X010039Y021095D02*
X011140Y021095D01*
X011140Y020936D02*
X010713Y020936D01*
X010804Y020778D02*
X011140Y020778D01*
X009105Y024582D02*
X006720Y024582D01*
X006720Y024423D02*
X008631Y024423D01*
X008357Y024265D02*
X006720Y024265D01*
X006720Y024106D02*
X008183Y024106D01*
X008025Y023948D02*
X006720Y023948D01*
X006720Y023789D02*
X007917Y023789D01*
X007825Y023631D02*
X006720Y023631D01*
X006720Y023472D02*
X007741Y023472D01*
X007699Y023314D02*
X006720Y023314D01*
X006720Y023155D02*
X007656Y023155D01*
X007625Y022997D02*
X006720Y022997D01*
X006720Y022838D02*
X007625Y022838D01*
X007625Y022680D02*
X006720Y022680D01*
X006869Y022521D02*
X007636Y022521D01*
X007679Y022363D02*
X007028Y022363D01*
X007186Y022204D02*
X007721Y022204D01*
X007781Y022046D02*
X007345Y022046D01*
X007503Y021887D02*
X007873Y021887D01*
X007964Y021729D02*
X007662Y021729D01*
X007820Y021570D02*
X008107Y021570D01*
X007979Y021412D02*
X008266Y021412D01*
X008137Y021253D02*
X008499Y021253D01*
X008220Y021095D02*
X008821Y021095D01*
X008707Y025533D02*
X009153Y025533D01*
X009058Y025691D02*
X008802Y025691D01*
X008815Y025850D02*
X009045Y025850D01*
X009099Y026008D02*
X008761Y026008D01*
X008720Y026167D02*
X009140Y026167D01*
X009720Y026167D02*
X010640Y026167D01*
X010640Y026008D02*
X009761Y026008D01*
X009815Y025850D02*
X010720Y025850D01*
X010879Y025691D02*
X009802Y025691D01*
X009707Y025533D02*
X011037Y025533D01*
X010577Y026325D02*
X010283Y026325D01*
X010385Y026484D02*
X010475Y026484D01*
X010440Y026642D02*
X010420Y026642D01*
X010420Y026801D02*
X010440Y026801D01*
X010440Y026959D02*
X010420Y026959D01*
X010420Y027118D02*
X010440Y027118D01*
X010440Y027276D02*
X010420Y027276D01*
X010357Y027435D02*
X010503Y027435D01*
X010645Y027593D02*
X010215Y027593D01*
X010081Y027752D02*
X010650Y027752D01*
X010505Y027910D02*
X010289Y027910D01*
X010360Y028069D02*
X010440Y028069D01*
X010440Y028227D02*
X010370Y028227D01*
X010370Y028386D02*
X010440Y028386D01*
X010440Y028544D02*
X010370Y028544D01*
X010370Y028703D02*
X010440Y028703D01*
X010473Y028861D02*
X010334Y028861D01*
X010218Y029020D02*
X010572Y029020D01*
X009930Y029020D02*
X009930Y029020D01*
X009930Y028861D02*
X009930Y028861D01*
X009930Y028703D02*
X009930Y028703D01*
X009930Y028544D02*
X009930Y028544D01*
X009930Y028386D02*
X009930Y028386D01*
X009930Y028227D02*
X009930Y028227D01*
X009930Y028069D02*
X009930Y028069D01*
X009930Y027910D02*
X009930Y027910D01*
X009930Y027752D02*
X009930Y027752D01*
X009779Y027752D02*
X009720Y027752D01*
X008140Y026167D02*
X007720Y026167D01*
X007761Y026008D02*
X008099Y026008D01*
X008045Y025850D02*
X007815Y025850D01*
X007802Y025691D02*
X008058Y025691D01*
X008153Y025533D02*
X007707Y025533D01*
X011063Y032190D02*
X011140Y032190D01*
X011420Y032982D02*
X011440Y032982D01*
X011440Y033141D02*
X011420Y033141D01*
X011413Y033299D02*
X011447Y033299D01*
X011513Y033458D02*
X011347Y033458D01*
X011170Y033616D02*
X011690Y033616D01*
X011720Y032190D02*
X011797Y032190D01*
X008690Y033616D02*
X008170Y033616D01*
X008347Y033458D02*
X008513Y033458D01*
X008447Y033299D02*
X008413Y033299D01*
X008420Y033141D02*
X008440Y033141D01*
X008440Y032982D02*
X008420Y032982D01*
X007690Y033616D02*
X007170Y033616D01*
X007347Y033458D02*
X007513Y033458D01*
X007447Y033299D02*
X007413Y033299D01*
X007420Y033141D02*
X007440Y033141D01*
X007440Y032982D02*
X007420Y032982D01*
X006690Y033616D02*
X006170Y033616D01*
X006347Y033458D02*
X006513Y033458D01*
X006447Y033299D02*
X006413Y033299D01*
X006420Y033141D02*
X006440Y033141D01*
X006440Y032982D02*
X006420Y032982D01*
X005690Y033616D02*
X005170Y033616D01*
X005347Y033458D02*
X005513Y033458D01*
X005447Y033299D02*
X005413Y033299D01*
X005420Y033141D02*
X005440Y033141D01*
X005440Y032982D02*
X005420Y032982D01*
X004690Y033616D02*
X004170Y033616D01*
X004347Y033458D02*
X004513Y033458D01*
X004447Y033299D02*
X004413Y033299D01*
X004420Y033141D02*
X004440Y033141D01*
X004440Y032982D02*
X004420Y032982D01*
X003690Y033616D02*
X003170Y033616D01*
X003347Y033458D02*
X003513Y033458D01*
X003447Y033299D02*
X003413Y033299D01*
X003420Y033141D02*
X003440Y033141D01*
X003440Y032982D02*
X003420Y032982D01*
X002690Y033616D02*
X002021Y033616D01*
X001930Y033616D02*
X001930Y033616D01*
X001839Y033616D02*
X000660Y033616D01*
X000660Y033458D02*
X001584Y033458D01*
X001504Y033299D02*
X000660Y033299D01*
X000660Y033141D02*
X001490Y033141D01*
X001490Y032982D02*
X000660Y032982D01*
X000660Y032824D02*
X001490Y032824D01*
X001490Y032925D02*
X001490Y032630D01*
X001501Y032562D01*
X001522Y032496D01*
X001554Y032434D01*
X001594Y032378D01*
X001643Y032329D01*
X001699Y032289D01*
X001761Y032257D01*
X001827Y032236D01*
X001895Y032225D01*
X001930Y032225D01*
X001930Y032925D01*
X001490Y032925D01*
X001490Y032665D02*
X000660Y032665D01*
X000660Y032507D02*
X001519Y032507D01*
X001625Y032348D02*
X000660Y032348D01*
X000660Y032190D02*
X002140Y032190D01*
X001930Y032348D02*
X001930Y032348D01*
X001930Y032507D02*
X001930Y032507D01*
X001930Y032665D02*
X001930Y032665D01*
X001930Y032824D02*
X001930Y032824D01*
X001930Y032982D02*
X001930Y032982D01*
X001930Y033141D02*
X001930Y033141D01*
X001930Y033299D02*
X001930Y033299D01*
X001930Y033458D02*
X001930Y033458D01*
X002276Y033458D02*
X002513Y033458D01*
X002447Y033299D02*
X002356Y033299D01*
X002370Y033141D02*
X002440Y033141D01*
X002440Y032982D02*
X002370Y032982D01*
X002370Y032824D02*
X002418Y032824D01*
X001583Y032031D02*
X000660Y032031D01*
X000660Y031873D02*
X001477Y031873D01*
X001440Y031714D02*
X000660Y031714D01*
X000660Y031556D02*
X001440Y031556D01*
X001440Y031397D02*
X000660Y031397D01*
X000660Y031239D02*
X001440Y031239D01*
X001440Y031080D02*
X000660Y031080D01*
X000660Y030922D02*
X001500Y030922D01*
X001639Y030763D02*
X000660Y030763D01*
X000660Y030605D02*
X002140Y030605D01*
X002140Y030446D02*
X000660Y030446D01*
X000660Y030288D02*
X002140Y030288D01*
X002140Y030129D02*
X000660Y030129D01*
X000660Y029971D02*
X002140Y029971D01*
X002140Y029812D02*
X000660Y029812D01*
X000660Y029654D02*
X002140Y029654D01*
X002140Y029495D02*
X000660Y029495D01*
X000660Y029337D02*
X002140Y029337D01*
X002140Y029178D02*
X000660Y029178D01*
X000660Y029020D02*
X001642Y029020D01*
X001643Y029021D02*
X001594Y028972D01*
X001554Y028916D01*
X001522Y028854D01*
X001501Y028788D01*
X001490Y028720D01*
X001490Y028425D01*
X001930Y028425D01*
X001930Y028425D01*
X001930Y028425D01*
X001930Y029125D01*
X001895Y029125D01*
X001827Y029114D01*
X001761Y029093D01*
X001699Y029061D01*
X001643Y029021D01*
X001526Y028861D02*
X000660Y028861D01*
X000660Y028703D02*
X001490Y028703D01*
X001490Y028544D02*
X000660Y028544D01*
X000660Y028386D02*
X001490Y028386D01*
X001490Y028425D02*
X001490Y028130D01*
X001501Y028062D01*
X001522Y027996D01*
X001554Y027934D01*
X001594Y027878D01*
X001643Y027829D01*
X001699Y027789D01*
X001761Y027757D01*
X001827Y027736D01*
X001895Y027725D01*
X001930Y027725D01*
X001930Y028425D01*
X001490Y028425D01*
X001490Y028227D02*
X000660Y028227D01*
X000660Y028069D02*
X001500Y028069D01*
X001571Y027910D02*
X000660Y027910D01*
X000660Y027752D02*
X001779Y027752D01*
X001930Y027752D02*
X001930Y027752D01*
X002081Y027752D02*
X002140Y027752D01*
X001930Y027910D02*
X001930Y027910D01*
X001930Y028069D02*
X001930Y028069D01*
X001930Y028227D02*
X001930Y028227D01*
X001930Y028386D02*
X001930Y028386D01*
X001930Y028544D02*
X001930Y028544D01*
X001930Y028703D02*
X001930Y028703D01*
X001930Y028861D02*
X001930Y028861D01*
X001930Y029020D02*
X001930Y029020D01*
X001645Y027593D02*
X000660Y027593D01*
X000660Y027435D02*
X001503Y027435D01*
X001440Y027276D02*
X000660Y027276D01*
X000660Y027118D02*
X001440Y027118D01*
X001440Y026959D02*
X000660Y026959D01*
X000660Y026801D02*
X001440Y026801D01*
X001440Y026642D02*
X000660Y026642D01*
X000660Y026484D02*
X001475Y026484D01*
X001577Y026325D02*
X000660Y026325D01*
X000660Y026167D02*
X001640Y026167D01*
X001640Y026008D02*
X000660Y026008D01*
X000660Y025850D02*
X001640Y025850D01*
X001640Y025691D02*
X000660Y025691D01*
X000660Y025533D02*
X001640Y025533D01*
X001640Y025374D02*
X000660Y025374D01*
X000660Y025216D02*
X001640Y025216D01*
X001640Y025057D02*
X000660Y025057D01*
X000660Y024899D02*
X001640Y024899D01*
X001640Y024740D02*
X000660Y024740D01*
X000660Y024582D02*
X001640Y024582D01*
X001640Y024423D02*
X000660Y024423D01*
X000660Y024265D02*
X001640Y024265D01*
X001640Y024106D02*
X000660Y024106D01*
X000660Y023948D02*
X001640Y023948D01*
X001640Y023789D02*
X000660Y023789D01*
X000660Y023631D02*
X001640Y023631D01*
X001640Y023472D02*
X000660Y023472D01*
X000660Y023314D02*
X001640Y023314D01*
X001640Y023155D02*
X000660Y023155D01*
X000660Y022997D02*
X001640Y022997D01*
X001640Y022838D02*
X000660Y022838D01*
X000660Y022680D02*
X001640Y022680D01*
X001640Y022521D02*
X001422Y022521D01*
X001671Y022363D02*
X001707Y022363D01*
X001761Y022204D02*
X001866Y022204D01*
X001785Y022046D02*
X002024Y022046D01*
X002183Y021887D02*
X001785Y021887D01*
X001785Y021729D02*
X002341Y021729D01*
X002500Y021570D02*
X001785Y021570D01*
X001785Y021412D02*
X002658Y021412D01*
X002817Y021253D02*
X001785Y021253D01*
X001785Y021095D02*
X002975Y021095D01*
X003134Y020936D02*
X001785Y020936D01*
X001785Y020778D02*
X003140Y020778D01*
X003140Y020619D02*
X001785Y020619D01*
X001785Y020461D02*
X003140Y020461D01*
X003140Y020302D02*
X001785Y020302D01*
X001785Y020144D02*
X003140Y020144D01*
X003140Y019985D02*
X001785Y019985D01*
X001785Y019827D02*
X003140Y019827D01*
X003140Y019668D02*
X001785Y019668D01*
X001785Y019510D02*
X003140Y019510D01*
X003140Y019351D02*
X001785Y019351D01*
X001785Y019193D02*
X003140Y019193D01*
X003140Y019034D02*
X001785Y019034D01*
X001785Y018876D02*
X003140Y018876D01*
X003140Y018717D02*
X001785Y018717D01*
X001785Y018559D02*
X003140Y018559D01*
X003140Y018400D02*
X002259Y018400D01*
X002370Y018242D02*
X003140Y018242D01*
X003140Y018083D02*
X002410Y018083D01*
X002410Y017925D02*
X003140Y017925D01*
X003140Y017766D02*
X002410Y017766D01*
X002410Y017608D02*
X003140Y017608D01*
X003140Y017449D02*
X002410Y017449D01*
X002410Y017291D02*
X003140Y017291D01*
X003140Y017132D02*
X002410Y017132D01*
X002410Y016974D02*
X003140Y016974D01*
X003140Y016815D02*
X002410Y016815D01*
X002410Y016657D02*
X003140Y016657D01*
X003140Y016498D02*
X002410Y016498D01*
X002410Y016340D02*
X003140Y016340D01*
X003140Y016181D02*
X002400Y016181D01*
X002331Y016023D02*
X003140Y016023D01*
X003140Y015864D02*
X002132Y015864D01*
X001785Y015706D02*
X003140Y015706D01*
X003140Y015547D02*
X001785Y015547D01*
X001758Y015389D02*
X003140Y015389D01*
X003140Y015230D02*
X003061Y015230D01*
X002930Y015230D02*
X002930Y015230D01*
X002930Y015250D02*
X002895Y015250D01*
X002827Y015239D01*
X002761Y015218D01*
X002699Y015186D01*
X002643Y015146D01*
X002594Y015097D01*
X002554Y015041D01*
X002522Y014979D01*
X002501Y014913D01*
X000660Y014913D01*
X000660Y014755D02*
X002490Y014755D01*
X002490Y014845D02*
X002490Y014550D01*
X002930Y014550D01*
X002930Y014550D01*
X002930Y014550D01*
X002930Y015250D01*
X002799Y015230D02*
X001664Y015230D01*
X001404Y015072D02*
X002576Y015072D01*
X002501Y014913D02*
X002490Y014845D01*
X002490Y014596D02*
X000660Y014596D01*
X000660Y014438D02*
X002490Y014438D01*
X002490Y014550D02*
X002490Y014255D01*
X002501Y014187D01*
X002522Y014121D01*
X002554Y014059D01*
X002594Y014003D01*
X002643Y013954D01*
X002699Y013914D01*
X002761Y013882D01*
X002827Y013861D01*
X002895Y013850D01*
X002930Y013850D01*
X002930Y014550D01*
X002490Y014550D01*
X002490Y014279D02*
X000660Y014279D01*
X000660Y014121D02*
X002523Y014121D01*
X002636Y013962D02*
X000660Y013962D01*
X000660Y013804D02*
X003140Y013804D01*
X003140Y013645D02*
X000660Y013645D01*
X000660Y013487D02*
X003140Y013487D01*
X003048Y013328D02*
X000660Y013328D01*
X000660Y013170D02*
X002889Y013170D01*
X002731Y013011D02*
X000660Y013011D01*
X000660Y012853D02*
X002640Y012853D01*
X002640Y012694D02*
X000660Y012694D01*
X000660Y012536D02*
X002640Y012536D01*
X002640Y012377D02*
X000660Y012377D01*
X000660Y012219D02*
X002640Y012219D01*
X002640Y012060D02*
X000660Y012060D01*
X000660Y011902D02*
X002640Y011902D01*
X002640Y011743D02*
X000660Y011743D01*
X000660Y011585D02*
X002640Y011585D01*
X002640Y011426D02*
X000660Y011426D01*
X000660Y011268D02*
X002640Y011268D01*
X002640Y011109D02*
X000660Y011109D01*
X000660Y010951D02*
X002640Y010951D01*
X002640Y010792D02*
X000660Y010792D01*
X000660Y010634D02*
X002640Y010634D01*
X002640Y010475D02*
X000660Y010475D01*
X000660Y010317D02*
X002640Y010317D01*
X002640Y010158D02*
X002197Y010158D01*
X002389Y010000D02*
X002640Y010000D01*
X002640Y009841D02*
X002440Y009841D01*
X002423Y009683D02*
X002640Y009683D01*
X002640Y009524D02*
X002323Y009524D01*
X002640Y009366D02*
X001656Y009366D01*
X001497Y009207D02*
X002634Y009207D01*
X002498Y009049D02*
X001345Y009049D01*
X001345Y008890D02*
X002440Y008890D01*
X002440Y008732D02*
X001345Y008732D01*
X001345Y008573D02*
X002440Y008573D01*
X002440Y008415D02*
X001345Y008415D01*
X001345Y008256D02*
X002440Y008256D01*
X002479Y008098D02*
X001345Y008098D01*
X001345Y007939D02*
X002588Y007939D01*
X002640Y007781D02*
X001345Y007781D01*
X001345Y007622D02*
X002640Y007622D01*
X002652Y007464D02*
X001345Y007464D01*
X001345Y007305D02*
X002765Y007305D01*
X002923Y007147D02*
X001345Y007147D01*
X001345Y006988D02*
X003082Y006988D01*
X003240Y006830D02*
X001345Y006830D01*
X001345Y006671D02*
X002122Y006671D01*
X001998Y006513D02*
X001345Y006513D01*
X001345Y006354D02*
X001950Y006354D01*
X001950Y006196D02*
X001345Y006196D01*
X001345Y006037D02*
X001950Y006037D01*
X001950Y005879D02*
X001345Y005879D01*
X001345Y005720D02*
X001950Y005720D01*
X001950Y005562D02*
X001345Y005562D01*
X001345Y005403D02*
X001950Y005403D01*
X001474Y005245D02*
X001386Y005245D01*
X000765Y005403D02*
X000660Y005403D01*
X000660Y005562D02*
X000765Y005562D01*
X000765Y005720D02*
X000660Y005720D01*
X000660Y005879D02*
X000765Y005879D01*
X000765Y006037D02*
X000660Y006037D01*
X000660Y006196D02*
X000765Y006196D01*
X000765Y006354D02*
X000660Y006354D01*
X000660Y006513D02*
X000765Y006513D01*
X000765Y006671D02*
X000660Y006671D01*
X000660Y006830D02*
X000765Y006830D01*
X000765Y006988D02*
X000660Y006988D01*
X000660Y007147D02*
X000765Y007147D01*
X000765Y007305D02*
X000660Y007305D01*
X000660Y007464D02*
X000765Y007464D01*
X000765Y007622D02*
X000660Y007622D01*
X000660Y007781D02*
X000765Y007781D01*
X000765Y007939D02*
X000660Y007939D01*
X000660Y008098D02*
X000765Y008098D01*
X000765Y008256D02*
X000660Y008256D01*
X000660Y008415D02*
X000765Y008415D01*
X000765Y008573D02*
X000660Y008573D01*
X000660Y008732D02*
X000765Y008732D01*
X000765Y008890D02*
X000660Y008890D01*
X000660Y009049D02*
X000765Y009049D01*
X000765Y009207D02*
X000660Y009207D01*
X000660Y009366D02*
X000835Y009366D01*
X000994Y009524D02*
X000660Y009524D01*
X000660Y009683D02*
X001152Y009683D01*
X001311Y009841D02*
X000660Y009841D01*
X000660Y010000D02*
X001469Y010000D01*
X001913Y010158D02*
X000660Y010158D01*
X002930Y013962D02*
X002930Y013962D01*
X002930Y014121D02*
X002930Y014121D01*
X002930Y014279D02*
X002930Y014279D01*
X002930Y014438D02*
X002930Y014438D01*
X002930Y014596D02*
X002930Y014596D01*
X002930Y014755D02*
X002930Y014755D01*
X002930Y014913D02*
X002930Y014913D01*
X002930Y015072D02*
X002930Y015072D01*
X003363Y006671D02*
X003399Y006671D01*
X003487Y006513D02*
X003557Y006513D01*
X003535Y006354D02*
X003640Y006354D01*
X003640Y006196D02*
X003535Y006196D01*
X003535Y006037D02*
X003640Y006037D01*
X003640Y005879D02*
X003535Y005879D01*
X003535Y005720D02*
X003640Y005720D01*
X003640Y005562D02*
X003535Y005562D01*
X003535Y005403D02*
X003640Y005403D01*
X014280Y005403D02*
X015325Y005403D01*
X015325Y005245D02*
X015293Y005245D01*
X015000Y005245D02*
X014860Y005245D01*
X014860Y005086D02*
X015000Y005086D01*
X015000Y004928D02*
X014860Y004928D01*
X014567Y005245D02*
X014386Y005245D01*
X014280Y005562D02*
X015325Y005562D01*
X015325Y005720D02*
X014280Y005720D01*
X014378Y005879D02*
X015325Y005879D01*
X015325Y006037D02*
X014537Y006037D01*
X014695Y006196D02*
X015325Y006196D01*
X015325Y006354D02*
X014854Y006354D01*
X015012Y006513D02*
X015373Y006513D01*
X015497Y006671D02*
X015171Y006671D01*
X015329Y006830D02*
X016640Y006830D01*
X016591Y006988D02*
X015488Y006988D01*
X015646Y007147D02*
X016545Y007147D01*
X016567Y007305D02*
X015805Y007305D01*
X015963Y007464D02*
X016674Y007464D01*
X016690Y008098D02*
X016381Y008098D01*
X016280Y007939D02*
X017515Y007939D01*
X017515Y007781D02*
X016249Y007781D01*
X016122Y007622D02*
X017515Y007622D01*
X017515Y007464D02*
X017186Y007464D01*
X017293Y007305D02*
X017515Y007305D01*
X017515Y007147D02*
X017315Y007147D01*
X017269Y006988D02*
X017515Y006988D01*
X017515Y006830D02*
X017220Y006830D01*
X017220Y006671D02*
X017515Y006671D01*
X017515Y006513D02*
X017220Y006513D01*
X017220Y006354D02*
X017515Y006354D01*
X017515Y006196D02*
X017220Y006196D01*
X017220Y006037D02*
X017515Y006037D01*
X017515Y005879D02*
X017220Y005879D01*
X017220Y005720D02*
X017515Y005720D01*
X017515Y005562D02*
X017220Y005562D01*
X017220Y005403D02*
X017515Y005403D01*
X017474Y005245D02*
X017386Y005245D01*
X018095Y005403D02*
X018200Y005403D01*
X018200Y005562D02*
X018095Y005562D01*
X018095Y005720D02*
X018200Y005720D01*
X018200Y005879D02*
X018095Y005879D01*
X018095Y006037D02*
X018200Y006037D01*
X018200Y006196D02*
X018095Y006196D01*
X018095Y006354D02*
X018200Y006354D01*
X018200Y006513D02*
X018095Y006513D01*
X018095Y006671D02*
X018200Y006671D01*
X018200Y006830D02*
X018095Y006830D01*
X018095Y006988D02*
X018200Y006988D01*
X018200Y007147D02*
X018095Y007147D01*
X018095Y007305D02*
X018200Y007305D01*
X018200Y007464D02*
X018095Y007464D01*
X018095Y007622D02*
X018200Y007622D01*
X018200Y007781D02*
X018095Y007781D01*
X018095Y007939D02*
X018200Y007939D01*
X018200Y008098D02*
X018095Y008098D01*
X018095Y008256D02*
X018200Y008256D01*
X018200Y008415D02*
X018095Y008415D01*
X018095Y008573D02*
X018200Y008573D01*
X018200Y008732D02*
X018095Y008732D01*
X018095Y008890D02*
X018200Y008890D01*
X018200Y009049D02*
X018095Y009049D01*
X018095Y009207D02*
X018200Y009207D01*
X018200Y009366D02*
X018095Y009366D01*
X018095Y009524D02*
X018200Y009524D01*
X018200Y009683D02*
X018095Y009683D01*
X018095Y009841D02*
X018200Y009841D01*
X018200Y010000D02*
X018095Y010000D01*
X018095Y010158D02*
X018200Y010158D01*
X018200Y010317D02*
X018095Y010317D01*
X018095Y010475D02*
X018200Y010475D01*
X018200Y010634D02*
X018095Y010634D01*
X018095Y010792D02*
X018200Y010792D01*
X018200Y010951D02*
X018095Y010951D01*
X018095Y011109D02*
X018200Y011109D01*
X018200Y011268D02*
X018095Y011268D01*
X018095Y011426D02*
X018200Y011426D01*
X018200Y011585D02*
X018095Y011585D01*
X018095Y011743D02*
X018200Y011743D01*
X018200Y011902D02*
X018095Y011902D01*
X018095Y012060D02*
X018200Y012060D01*
X018200Y012219D02*
X018095Y012219D01*
X018095Y012377D02*
X018200Y012377D01*
X018200Y012536D02*
X018095Y012536D01*
X018178Y012694D02*
X018200Y012694D01*
X018190Y012853D02*
X018200Y012853D01*
X018200Y013011D02*
X018134Y013011D01*
X017515Y010792D02*
X017310Y010792D01*
X017370Y010634D02*
X017515Y010634D01*
X017515Y010475D02*
X017370Y010475D01*
X017319Y010317D02*
X017515Y010317D01*
X017515Y008890D02*
X017283Y008890D01*
X017420Y008732D02*
X017515Y008732D01*
X017515Y008573D02*
X017420Y008573D01*
X017420Y008415D02*
X017515Y008415D01*
X017515Y008256D02*
X017329Y008256D01*
X017170Y008098D02*
X017515Y008098D01*
X017444Y027593D02*
X017291Y027593D01*
X017352Y029654D02*
X017383Y029654D01*
X017352Y030446D02*
X017383Y030446D01*
X017977Y030446D02*
X018200Y030446D01*
X018200Y030288D02*
X018135Y030288D01*
X018170Y030129D02*
X018200Y030129D01*
X018200Y029971D02*
X018170Y029971D01*
X018200Y029812D02*
X018135Y029812D01*
X018200Y029654D02*
X017977Y029654D01*
X018200Y033775D02*
X000660Y033775D01*
X000660Y033933D02*
X018200Y033933D01*
X018200Y034092D02*
X000660Y034092D01*
X000660Y034250D02*
X018200Y034250D01*
X018200Y034409D02*
X000660Y034409D01*
X000660Y034567D02*
X018200Y034567D01*
D14*
X015430Y029925D03*
X010430Y020675D03*
X009930Y019925D03*
X009430Y018800D03*
X008930Y019175D03*
X008430Y019550D03*
X010930Y020300D03*
X009430Y025800D03*
X008430Y025800D03*
X007430Y025800D03*
X008430Y011300D03*
X009430Y007175D03*
X008430Y005925D03*
X007430Y005925D03*
X006430Y005925D03*
X005430Y005925D03*
X004430Y005925D03*
X002055Y009800D03*
X010430Y005925D03*
X011430Y005925D03*
X012430Y005925D03*
X013430Y005925D03*
X013930Y006675D03*
X014930Y011300D03*
X016930Y007175D03*
X017805Y012800D03*
D15*
X017805Y003925D01*
X017930Y003800D01*
X016930Y003800D02*
X016930Y007175D01*
X014930Y008925D02*
X015430Y009425D01*
X015430Y029925D01*
X014430Y030425D02*
X013930Y030925D01*
X013930Y032925D01*
X013430Y032425D02*
X013430Y026050D01*
X013930Y025550D01*
X013930Y014550D01*
X013930Y013300D01*
X014430Y012800D01*
X014430Y007800D01*
X013930Y007300D01*
X013930Y006675D01*
X013430Y005925D02*
X013430Y012800D01*
X012930Y013300D01*
X012930Y014550D01*
X012930Y025550D01*
X012430Y026050D01*
X012430Y032425D01*
X011930Y032925D01*
X011430Y032425D02*
X011430Y026050D01*
X011930Y025550D01*
X011930Y014550D01*
X011930Y013300D01*
X012430Y012800D01*
X012430Y005925D01*
X011430Y005925D02*
X011430Y012800D01*
X010930Y013300D01*
X010930Y014550D01*
X010930Y020300D01*
X010430Y020675D02*
X010430Y013300D01*
X010930Y012800D01*
X010930Y008550D01*
X010930Y003800D01*
X009930Y003800D02*
X009930Y006050D01*
X008930Y007050D01*
X008930Y008550D01*
X008930Y012800D01*
X008430Y013300D01*
X008430Y019550D01*
X008930Y019175D02*
X008930Y014550D01*
X008930Y013300D01*
X009430Y012800D01*
X009430Y007175D01*
X008930Y006550D02*
X008430Y007050D01*
X008430Y011300D01*
X007430Y012800D02*
X007930Y013300D01*
X007930Y014550D01*
X007930Y021050D01*
X006430Y022550D01*
X006430Y032425D01*
X006930Y032925D01*
X007430Y032425D02*
X007430Y025800D01*
X008430Y025800D02*
X008430Y032425D01*
X008930Y032925D01*
X009430Y032425D02*
X009430Y025800D01*
X010930Y026050D02*
X010930Y026925D01*
X010930Y026050D02*
X011430Y025550D01*
X011430Y013300D01*
X011930Y012800D01*
X011930Y008550D01*
X011930Y003800D01*
X012930Y003800D02*
X012930Y008550D01*
X012930Y012800D01*
X012430Y013300D01*
X012430Y025550D01*
X011930Y026050D01*
X011930Y026925D01*
X012930Y026925D02*
X012930Y026050D01*
X013430Y025550D01*
X013430Y013300D01*
X013930Y012800D01*
X013930Y008550D01*
X014930Y008550D02*
X014930Y008925D01*
X014930Y011300D02*
X014930Y014550D01*
X014930Y025550D01*
X014430Y026050D01*
X014430Y030425D01*
X013430Y032425D02*
X012930Y032925D01*
X011430Y032425D02*
X010930Y032925D01*
X009930Y032925D02*
X009430Y032425D01*
X007930Y032925D02*
X007430Y032425D01*
X005930Y032925D02*
X005430Y032425D01*
X005430Y022550D01*
X006930Y021050D01*
X006930Y014550D01*
X006930Y013300D01*
X006430Y012800D01*
X006430Y007550D01*
X007430Y006550D01*
X007430Y005925D01*
X007930Y006550D02*
X006930Y007550D01*
X006930Y008550D01*
X006930Y012800D01*
X007430Y013300D01*
X007430Y021050D01*
X005930Y022550D01*
X005930Y026925D01*
X004930Y026925D02*
X004930Y022550D01*
X006430Y021050D01*
X006430Y013300D01*
X005930Y012800D01*
X005930Y008550D01*
X005930Y007550D01*
X006930Y006550D01*
X006930Y003800D01*
X005930Y003800D02*
X005930Y006550D01*
X004930Y007550D01*
X004930Y008550D01*
X004930Y012800D01*
X005430Y013300D01*
X005430Y021050D01*
X003930Y022550D01*
X003930Y026925D01*
X003930Y028425D02*
X003430Y028425D01*
X003430Y032425D01*
X003930Y032925D01*
X004430Y032425D02*
X004930Y032925D01*
X004430Y032425D02*
X004430Y028425D01*
X004930Y028425D01*
X004430Y028425D02*
X004430Y022550D01*
X005930Y021050D01*
X005930Y014550D01*
X005930Y013300D01*
X005430Y012800D01*
X005430Y007550D01*
X006430Y006550D01*
X006430Y005925D01*
X005430Y005925D02*
X005430Y006550D01*
X004430Y007550D01*
X004430Y012800D01*
X004930Y013300D01*
X004930Y014550D01*
X004930Y021050D01*
X003430Y022550D01*
X003430Y028425D01*
X002930Y028425D02*
X002430Y028425D01*
X002430Y032425D01*
X002930Y032925D01*
X002430Y028425D02*
X002430Y022550D01*
X003930Y021050D01*
X003930Y014550D01*
X003930Y013300D01*
X003430Y012800D01*
X003430Y007550D01*
X004430Y006550D01*
X004430Y005925D01*
X004930Y006550D02*
X003930Y007550D01*
X003930Y008550D01*
X003930Y012800D01*
X004430Y013300D01*
X004430Y021050D01*
X002930Y022550D01*
X002930Y026925D01*
X001930Y026925D02*
X001930Y022550D01*
X003430Y021050D01*
X003430Y013300D01*
X002930Y012800D01*
X002930Y008550D01*
X002930Y007550D01*
X003930Y006550D01*
X003930Y003800D01*
X004930Y003800D02*
X004930Y006550D01*
X007430Y007550D02*
X007430Y012800D01*
X009430Y013300D02*
X009930Y012800D01*
X009930Y008550D01*
X008930Y006550D02*
X008930Y003800D01*
X007930Y003800D02*
X007930Y006550D01*
X008430Y006550D02*
X007430Y007550D01*
X008430Y006550D02*
X008430Y005925D01*
X010430Y005925D02*
X010430Y012800D01*
X009930Y013300D01*
X009930Y014550D01*
X009930Y019925D01*
X009430Y018800D02*
X009430Y013300D01*
X002055Y009800D02*
X001680Y009800D01*
X001055Y009175D01*
X001055Y003925D01*
X000930Y003800D01*
D16*
X013930Y003800D02*
X013930Y005925D01*
X015930Y007925D01*
X015930Y008550D01*
X015930Y014550D01*
X015930Y026925D01*
X015930Y031050D01*
X015555Y031425D01*
X014930Y031425D01*
X015930Y026925D02*
X016930Y026925D01*
X016930Y025675D01*
X016930Y008550D02*
X015930Y008550D01*
M02*
