G75*
%MOIN*%
%OFA0B0*%
%FSLAX24Y24*%
%IPPOS*%
%LPD*%
%AMOC8*
5,1,8,0,0,1.08239X$1,22.5*
%
%ADD10C,0.0000*%
%ADD11C,0.0060*%
%ADD12C,0.0110*%
%ADD13C,0.0040*%
D10*
X000180Y002550D02*
X002430Y002550D01*
X002430Y006300D01*
X003055Y006300D01*
X003055Y002550D01*
X015805Y002550D01*
X015805Y006300D01*
X016430Y006300D01*
X016430Y002550D01*
X018680Y002550D01*
X018680Y015550D01*
X017555Y015550D01*
X017555Y016300D01*
X016930Y016300D01*
X016930Y018050D01*
X017555Y018050D01*
X017555Y022050D01*
X018680Y022050D01*
X018680Y035050D01*
X000180Y035050D01*
X000180Y022050D01*
X001305Y022050D01*
X001305Y018050D01*
X001930Y018050D01*
X001930Y016300D01*
X001305Y016300D01*
X001305Y015550D01*
X000180Y015550D01*
X000180Y002550D01*
X008105Y022800D02*
X008107Y022872D01*
X008113Y022944D01*
X008123Y023016D01*
X008137Y023087D01*
X008154Y023157D01*
X008176Y023227D01*
X008201Y023294D01*
X008230Y023361D01*
X008262Y023426D01*
X008298Y023488D01*
X008337Y023549D01*
X008380Y023608D01*
X008425Y023664D01*
X008474Y023718D01*
X008526Y023768D01*
X008580Y023816D01*
X008637Y023861D01*
X008696Y023903D01*
X008757Y023941D01*
X008820Y023976D01*
X008886Y024008D01*
X008952Y024036D01*
X009021Y024060D01*
X009090Y024081D01*
X009160Y024097D01*
X009232Y024110D01*
X009304Y024119D01*
X009376Y024124D01*
X009448Y024125D01*
X009520Y024122D01*
X009592Y024115D01*
X009664Y024104D01*
X009735Y024089D01*
X009805Y024071D01*
X009874Y024048D01*
X009941Y024022D01*
X010007Y023993D01*
X010071Y023959D01*
X010134Y023923D01*
X010194Y023882D01*
X010252Y023839D01*
X010308Y023793D01*
X010360Y023743D01*
X010411Y023691D01*
X010458Y023636D01*
X010502Y023579D01*
X010543Y023519D01*
X010580Y023457D01*
X010615Y023393D01*
X010645Y023328D01*
X010672Y023261D01*
X010696Y023192D01*
X010715Y023122D01*
X010731Y023052D01*
X010743Y022980D01*
X010751Y022908D01*
X010755Y022836D01*
X010755Y022764D01*
X010751Y022692D01*
X010743Y022620D01*
X010731Y022548D01*
X010715Y022478D01*
X010696Y022408D01*
X010672Y022339D01*
X010645Y022272D01*
X010615Y022207D01*
X010580Y022143D01*
X010543Y022081D01*
X010502Y022021D01*
X010458Y021964D01*
X010411Y021909D01*
X010360Y021857D01*
X010308Y021807D01*
X010252Y021761D01*
X010194Y021718D01*
X010134Y021677D01*
X010071Y021641D01*
X010007Y021607D01*
X009941Y021578D01*
X009874Y021552D01*
X009805Y021529D01*
X009735Y021511D01*
X009664Y021496D01*
X009592Y021485D01*
X009520Y021478D01*
X009448Y021475D01*
X009376Y021476D01*
X009304Y021481D01*
X009232Y021490D01*
X009160Y021503D01*
X009090Y021519D01*
X009021Y021540D01*
X008952Y021564D01*
X008886Y021592D01*
X008820Y021624D01*
X008757Y021659D01*
X008696Y021697D01*
X008637Y021739D01*
X008580Y021784D01*
X008526Y021832D01*
X008474Y021882D01*
X008425Y021936D01*
X008380Y021992D01*
X008337Y022051D01*
X008298Y022112D01*
X008262Y022174D01*
X008230Y022239D01*
X008201Y022306D01*
X008176Y022373D01*
X008154Y022443D01*
X008137Y022513D01*
X008123Y022584D01*
X008113Y022656D01*
X008107Y022728D01*
X008105Y022800D01*
D11*
X013330Y028825D02*
X001530Y028825D01*
X001530Y031025D01*
X013330Y031025D01*
X013330Y030175D01*
X013300Y030173D01*
X013270Y030168D01*
X013241Y030159D01*
X013214Y030146D01*
X013188Y030131D01*
X013164Y030112D01*
X013143Y030091D01*
X013124Y030067D01*
X013109Y030041D01*
X013096Y030014D01*
X013087Y029985D01*
X013082Y029955D01*
X013080Y029925D01*
X013082Y029895D01*
X013087Y029865D01*
X013096Y029836D01*
X013109Y029809D01*
X013124Y029783D01*
X013143Y029759D01*
X013164Y029738D01*
X013188Y029719D01*
X013214Y029704D01*
X013241Y029691D01*
X013270Y029682D01*
X013300Y029677D01*
X013330Y029675D01*
X013330Y028825D01*
X016080Y028550D02*
X016080Y028450D01*
X016080Y028550D02*
X016130Y028600D01*
X016130Y029500D01*
X016080Y029550D01*
X016080Y029650D01*
X016082Y029667D01*
X016086Y029684D01*
X016093Y029700D01*
X016103Y029714D01*
X016116Y029727D01*
X016130Y029737D01*
X016146Y029744D01*
X016163Y029748D01*
X016180Y029750D01*
X016680Y029750D02*
X016697Y029748D01*
X016714Y029744D01*
X016730Y029737D01*
X016744Y029727D01*
X016757Y029714D01*
X016767Y029700D01*
X016774Y029684D01*
X016778Y029667D01*
X016780Y029650D01*
X016780Y029550D01*
X016730Y029500D01*
X016730Y028600D01*
X016780Y028550D01*
X016780Y028450D01*
X016705Y028450D02*
X016707Y028433D01*
X016711Y028416D01*
X016718Y028400D01*
X016728Y028386D01*
X016741Y028373D01*
X016755Y028363D01*
X016771Y028356D01*
X016788Y028352D01*
X016805Y028350D01*
X016705Y028450D02*
X016705Y028550D01*
X016755Y028600D01*
X016755Y029500D01*
X016705Y029550D01*
X016705Y029650D01*
X016707Y029667D01*
X016711Y029684D01*
X016718Y029700D01*
X016728Y029714D01*
X016741Y029727D01*
X016755Y029737D01*
X016771Y029744D01*
X016788Y029748D01*
X016805Y029750D01*
X017305Y029750D02*
X017322Y029748D01*
X017339Y029744D01*
X017355Y029737D01*
X017369Y029727D01*
X017382Y029714D01*
X017392Y029700D01*
X017399Y029684D01*
X017403Y029667D01*
X017405Y029650D01*
X017405Y029550D01*
X017355Y029500D01*
X017355Y028600D01*
X017405Y028550D01*
X017405Y028450D01*
X017330Y028450D02*
X017332Y028433D01*
X017336Y028416D01*
X017343Y028400D01*
X017353Y028386D01*
X017366Y028373D01*
X017380Y028363D01*
X017396Y028356D01*
X017413Y028352D01*
X017430Y028350D01*
X017330Y028450D02*
X017330Y028550D01*
X017380Y028600D01*
X017380Y029500D01*
X017330Y029550D01*
X017330Y029650D01*
X017332Y029667D01*
X017336Y029684D01*
X017343Y029700D01*
X017353Y029714D01*
X017366Y029727D01*
X017380Y029737D01*
X017396Y029744D01*
X017413Y029748D01*
X017430Y029750D01*
X017930Y029750D02*
X017947Y029748D01*
X017964Y029744D01*
X017980Y029737D01*
X017994Y029727D01*
X018007Y029714D01*
X018017Y029700D01*
X018024Y029684D01*
X018028Y029667D01*
X018030Y029650D01*
X018030Y029550D01*
X017980Y029500D01*
X017980Y028600D01*
X018030Y028550D01*
X018030Y028450D01*
X018028Y028433D01*
X018024Y028416D01*
X018017Y028400D01*
X018007Y028386D01*
X017994Y028373D01*
X017980Y028363D01*
X017964Y028356D01*
X017947Y028352D01*
X017930Y028350D01*
X017405Y028450D02*
X017403Y028433D01*
X017399Y028416D01*
X017392Y028400D01*
X017382Y028386D01*
X017369Y028373D01*
X017355Y028363D01*
X017339Y028356D01*
X017322Y028352D01*
X017305Y028350D01*
X016780Y028450D02*
X016778Y028433D01*
X016774Y028416D01*
X016767Y028400D01*
X016757Y028386D01*
X016744Y028373D01*
X016730Y028363D01*
X016714Y028356D01*
X016697Y028352D01*
X016680Y028350D01*
X016180Y028350D02*
X016163Y028352D01*
X016146Y028356D01*
X016130Y028363D01*
X016116Y028373D01*
X016103Y028386D01*
X016093Y028400D01*
X016086Y028416D01*
X016082Y028433D01*
X016080Y028450D01*
D12*
X012675Y029728D02*
X012577Y029630D01*
X012380Y029630D01*
X012281Y029728D01*
X012281Y029925D01*
X012478Y029925D01*
X012675Y030122D02*
X012675Y029728D01*
X012675Y030122D02*
X012577Y030221D01*
X012380Y030221D01*
X012281Y030122D01*
X012030Y030024D02*
X012030Y029630D01*
X012030Y029925D02*
X011637Y029925D01*
X011637Y030024D02*
X011637Y029630D01*
X011637Y030024D02*
X011834Y030221D01*
X012030Y030024D01*
X011386Y030221D02*
X011386Y029630D01*
X010992Y029630D01*
X010741Y029630D02*
X010348Y030024D01*
X010348Y030122D01*
X010446Y030221D01*
X010643Y030221D01*
X010741Y030122D01*
X010741Y029630D02*
X010348Y029630D01*
X010097Y029728D02*
X010097Y030122D01*
X009998Y030221D01*
X009802Y030221D01*
X009703Y030122D01*
X010097Y029728D01*
X009998Y029630D01*
X009802Y029630D01*
X009703Y029728D01*
X009703Y030122D01*
X009452Y030221D02*
X009452Y029827D01*
X009255Y029630D01*
X009059Y029827D01*
X009059Y030221D01*
X008808Y030122D02*
X008808Y030024D01*
X008709Y029925D01*
X008512Y029925D01*
X008414Y029827D01*
X008414Y029728D01*
X008512Y029630D01*
X008709Y029630D01*
X008808Y029728D01*
X008808Y029827D01*
X008709Y029925D01*
X008512Y029925D02*
X008414Y030024D01*
X008414Y030122D01*
X008512Y030221D01*
X008709Y030221D01*
X008808Y030122D01*
X008163Y030221D02*
X008163Y029630D01*
X007868Y029630D01*
X007769Y029728D01*
X007769Y029827D01*
X007868Y029925D01*
X008163Y029925D01*
X007868Y029925D02*
X007769Y030024D01*
X007769Y030122D01*
X007868Y030221D01*
X008163Y030221D01*
D13*
X016210Y029472D02*
X016210Y029352D01*
X016270Y029292D01*
X016210Y029165D02*
X016330Y028985D01*
X016450Y029165D01*
X016510Y029292D02*
X016570Y029352D01*
X016570Y029472D01*
X016510Y029532D01*
X016450Y029532D01*
X016390Y029472D01*
X016330Y029532D01*
X016270Y029532D01*
X016210Y029472D01*
X016390Y029472D02*
X016390Y029412D01*
X016210Y028985D02*
X016570Y028985D01*
X016510Y028857D02*
X016450Y028857D01*
X016390Y028797D01*
X016330Y028857D01*
X016270Y028857D01*
X016210Y028797D01*
X016210Y028676D01*
X016270Y028616D01*
X016390Y028737D02*
X016390Y028797D01*
X016510Y028857D02*
X016570Y028797D01*
X016570Y028676D01*
X016510Y028616D01*
X016835Y028676D02*
X016895Y028616D01*
X016835Y028676D02*
X016835Y028797D01*
X016895Y028857D01*
X016955Y028857D01*
X017015Y028797D01*
X017015Y028737D01*
X017015Y028797D02*
X017075Y028857D01*
X017135Y028857D01*
X017195Y028797D01*
X017195Y028676D01*
X017135Y028616D01*
X017460Y028676D02*
X017520Y028616D01*
X017460Y028676D02*
X017460Y028797D01*
X017520Y028857D01*
X017580Y028857D01*
X017640Y028797D01*
X017640Y028737D01*
X017640Y028797D02*
X017700Y028857D01*
X017760Y028857D01*
X017820Y028797D01*
X017820Y028676D01*
X017760Y028616D01*
X017820Y028985D02*
X017460Y028985D01*
X017580Y028985D02*
X017460Y029165D01*
X017520Y029292D02*
X017460Y029352D01*
X017460Y029472D01*
X017520Y029532D01*
X017580Y029532D01*
X017640Y029472D01*
X017640Y029412D01*
X017640Y029472D02*
X017700Y029532D01*
X017760Y029532D01*
X017820Y029472D01*
X017820Y029352D01*
X017760Y029292D01*
X017700Y029165D02*
X017580Y028985D01*
X017195Y028985D02*
X016835Y028985D01*
X016955Y028985D02*
X016835Y029165D01*
X016895Y029292D02*
X016835Y029352D01*
X016835Y029472D01*
X016895Y029532D01*
X016955Y029532D01*
X017015Y029472D01*
X017015Y029412D01*
X017015Y029472D02*
X017075Y029532D01*
X017135Y029532D01*
X017195Y029472D01*
X017195Y029352D01*
X017135Y029292D01*
X017075Y029165D02*
X016955Y028985D01*
M02*
