G75*
%MOIN*%
%OFA0B0*%
%FSLAX24Y24*%
%IPPOS*%
%LPD*%
%AMOC8*
5,1,8,0,0,1.08239X$1,22.5*
%
%ADD10C,0.0000*%
%ADD11C,0.0300*%
%ADD12C,0.0060*%
%ADD13C,0.0110*%
%ADD14C,0.0120*%
%ADD15R,0.0300X0.0150*%
%ADD16R,0.0150X0.0300*%
D10*
X000180Y002550D02*
X002430Y002550D01*
X002430Y006300D01*
X003055Y006300D01*
X003055Y002550D01*
X015805Y002550D01*
X015805Y006300D01*
X016430Y006300D01*
X016430Y002550D01*
X018680Y002550D01*
X018680Y015550D01*
X017555Y015550D01*
X017555Y016300D01*
X016930Y016300D01*
X016930Y018050D01*
X017555Y018050D01*
X017555Y022050D01*
X018680Y022050D01*
X018680Y035050D01*
X000180Y035050D01*
X000180Y022050D01*
X001305Y022050D01*
X001305Y018050D01*
X001930Y018050D01*
X001930Y016300D01*
X001305Y016300D01*
X001305Y015550D01*
X000180Y015550D01*
X000180Y002550D01*
X008105Y022800D02*
X008107Y022872D01*
X008113Y022944D01*
X008123Y023016D01*
X008137Y023087D01*
X008154Y023157D01*
X008176Y023227D01*
X008201Y023294D01*
X008230Y023361D01*
X008262Y023426D01*
X008298Y023488D01*
X008337Y023549D01*
X008380Y023608D01*
X008425Y023664D01*
X008474Y023718D01*
X008526Y023768D01*
X008580Y023816D01*
X008637Y023861D01*
X008696Y023903D01*
X008757Y023941D01*
X008820Y023976D01*
X008886Y024008D01*
X008952Y024036D01*
X009021Y024060D01*
X009090Y024081D01*
X009160Y024097D01*
X009232Y024110D01*
X009304Y024119D01*
X009376Y024124D01*
X009448Y024125D01*
X009520Y024122D01*
X009592Y024115D01*
X009664Y024104D01*
X009735Y024089D01*
X009805Y024071D01*
X009874Y024048D01*
X009941Y024022D01*
X010007Y023993D01*
X010071Y023959D01*
X010134Y023923D01*
X010194Y023882D01*
X010252Y023839D01*
X010308Y023793D01*
X010360Y023743D01*
X010411Y023691D01*
X010458Y023636D01*
X010502Y023579D01*
X010543Y023519D01*
X010580Y023457D01*
X010615Y023393D01*
X010645Y023328D01*
X010672Y023261D01*
X010696Y023192D01*
X010715Y023122D01*
X010731Y023052D01*
X010743Y022980D01*
X010751Y022908D01*
X010755Y022836D01*
X010755Y022764D01*
X010751Y022692D01*
X010743Y022620D01*
X010731Y022548D01*
X010715Y022478D01*
X010696Y022408D01*
X010672Y022339D01*
X010645Y022272D01*
X010615Y022207D01*
X010580Y022143D01*
X010543Y022081D01*
X010502Y022021D01*
X010458Y021964D01*
X010411Y021909D01*
X010360Y021857D01*
X010308Y021807D01*
X010252Y021761D01*
X010194Y021718D01*
X010134Y021677D01*
X010071Y021641D01*
X010007Y021607D01*
X009941Y021578D01*
X009874Y021552D01*
X009805Y021529D01*
X009735Y021511D01*
X009664Y021496D01*
X009592Y021485D01*
X009520Y021478D01*
X009448Y021475D01*
X009376Y021476D01*
X009304Y021481D01*
X009232Y021490D01*
X009160Y021503D01*
X009090Y021519D01*
X009021Y021540D01*
X008952Y021564D01*
X008886Y021592D01*
X008820Y021624D01*
X008757Y021659D01*
X008696Y021697D01*
X008637Y021739D01*
X008580Y021784D01*
X008526Y021832D01*
X008474Y021882D01*
X008425Y021936D01*
X008380Y021992D01*
X008337Y022051D01*
X008298Y022112D01*
X008262Y022174D01*
X008230Y022239D01*
X008201Y022306D01*
X008176Y022373D01*
X008154Y022443D01*
X008137Y022513D01*
X008123Y022584D01*
X008113Y022656D01*
X008107Y022728D01*
X008105Y022800D01*
D11*
X007824Y020526D02*
X007224Y020526D01*
X007224Y019325D01*
X007224Y019725D02*
X007824Y019725D01*
X008024Y019926D01*
X008024Y020326D01*
X007824Y020526D01*
X007624Y019725D02*
X008024Y019325D01*
X008399Y018526D02*
X007599Y018526D01*
X007599Y017325D01*
X008399Y017325D01*
X007999Y017926D02*
X007599Y017926D01*
X007018Y017926D02*
X006818Y017725D01*
X006217Y017725D01*
X006217Y017325D02*
X006217Y018526D01*
X006818Y018526D01*
X007018Y018326D01*
X007018Y017926D01*
X006643Y019325D02*
X006643Y020126D01*
X006243Y020526D01*
X005842Y020126D01*
X005842Y019325D01*
X005842Y019926D02*
X006643Y019926D01*
X005637Y018526D02*
X005637Y017525D01*
X005437Y017325D01*
X005036Y017325D01*
X004836Y017525D01*
X004836Y018526D01*
X004862Y019325D02*
X004862Y020526D01*
X005262Y020526D02*
X004461Y020526D01*
X003881Y020126D02*
X003881Y019325D01*
X003881Y019926D02*
X003080Y019926D01*
X003080Y020126D02*
X003480Y020526D01*
X003881Y020126D01*
X003080Y020126D02*
X003080Y019325D01*
X003655Y018526D02*
X003455Y018326D01*
X003455Y018126D01*
X003655Y017926D01*
X004056Y017926D01*
X004256Y017725D01*
X004256Y017525D01*
X004056Y017325D01*
X003655Y017325D01*
X003455Y017525D01*
X003655Y018526D02*
X004056Y018526D01*
X004256Y018326D01*
X008605Y019325D02*
X009005Y019325D01*
X008805Y019325D02*
X008805Y020526D01*
X008605Y020526D02*
X009005Y020526D01*
X008980Y018526D02*
X009580Y018526D01*
X009780Y018326D01*
X009780Y017926D01*
X009580Y017725D01*
X008980Y017725D01*
X008980Y017325D02*
X008980Y018526D01*
X009380Y017725D02*
X009780Y017325D01*
X010361Y017525D02*
X010361Y018326D01*
X010561Y018526D01*
X010961Y018526D01*
X011162Y018326D01*
X010907Y019325D02*
X010907Y019525D01*
X011707Y020326D01*
X011707Y020526D01*
X010907Y020526D01*
X012142Y018526D02*
X012543Y018126D01*
X012543Y017325D01*
X012543Y017926D02*
X011742Y017926D01*
X011742Y018126D02*
X011742Y017325D01*
X011742Y018126D02*
X012142Y018526D01*
X012488Y019325D02*
X012288Y019525D01*
X012288Y019725D01*
X012488Y019926D01*
X012888Y019926D01*
X013089Y019725D01*
X013089Y019525D01*
X012888Y019325D01*
X012488Y019325D01*
X012488Y019926D02*
X012288Y020126D01*
X012288Y020326D01*
X012488Y020526D01*
X012888Y020526D01*
X013089Y020326D01*
X013089Y020126D01*
X012888Y019926D01*
X013669Y019525D02*
X013669Y020326D01*
X013869Y020526D01*
X014270Y020526D01*
X014470Y020326D01*
X013669Y019525D01*
X013869Y019325D01*
X014270Y019325D01*
X014470Y019525D01*
X014470Y020326D01*
X015050Y020326D02*
X015050Y019525D01*
X015851Y020326D01*
X015851Y019525D01*
X015651Y019325D01*
X015250Y019325D01*
X015050Y019525D01*
X015050Y020326D02*
X015250Y020526D01*
X015651Y020526D01*
X015851Y020326D01*
X015305Y018526D02*
X014504Y018526D01*
X014905Y018526D02*
X014905Y017325D01*
X013924Y017325D02*
X013524Y017725D01*
X013724Y017725D02*
X013123Y017725D01*
X013123Y017325D02*
X013123Y018526D01*
X013724Y018526D01*
X013924Y018326D01*
X013924Y017926D01*
X013724Y017725D01*
X011162Y017525D02*
X010961Y017325D01*
X010561Y017325D01*
X010361Y017525D01*
D12*
X010258Y016727D02*
X010258Y016670D01*
X010258Y016557D02*
X010201Y016557D01*
X010258Y016557D02*
X010258Y016330D01*
X010201Y016330D02*
X010315Y016330D01*
X010447Y016387D02*
X010447Y016500D01*
X010504Y016557D01*
X010674Y016557D01*
X010674Y016670D02*
X010674Y016330D01*
X010504Y016330D01*
X010447Y016387D01*
X010815Y016330D02*
X010929Y016330D01*
X010872Y016330D02*
X010872Y016557D01*
X010815Y016557D01*
X010872Y016670D02*
X010872Y016727D01*
X011061Y016557D02*
X011174Y016557D01*
X011117Y016614D02*
X011117Y016387D01*
X011174Y016330D01*
X011306Y016330D02*
X011533Y016670D01*
X011731Y016557D02*
X011845Y016557D01*
X011901Y016500D01*
X011901Y016330D01*
X011731Y016330D01*
X011675Y016387D01*
X011731Y016443D01*
X011901Y016443D01*
X012043Y016387D02*
X012043Y016330D01*
X012043Y016387D02*
X012270Y016614D01*
X012270Y016670D01*
X012043Y016670D01*
X012411Y016614D02*
X012411Y016557D01*
X012468Y016500D01*
X012581Y016500D01*
X012638Y016443D01*
X012638Y016387D01*
X012581Y016330D01*
X012468Y016330D01*
X012411Y016387D01*
X012411Y016443D01*
X012468Y016500D01*
X012581Y016500D02*
X012638Y016557D01*
X012638Y016614D01*
X012581Y016670D01*
X012468Y016670D01*
X012411Y016614D01*
X012779Y016500D02*
X013006Y016500D01*
X013148Y016500D02*
X013205Y016557D01*
X013375Y016557D01*
X013318Y016443D02*
X013205Y016443D01*
X013148Y016500D01*
X013148Y016330D02*
X013318Y016330D01*
X013375Y016387D01*
X013318Y016443D01*
X013516Y016387D02*
X013573Y016330D01*
X013743Y016330D01*
X013743Y016557D01*
X013884Y016557D02*
X014055Y016557D01*
X014111Y016500D01*
X014111Y016387D01*
X014055Y016330D01*
X013884Y016330D01*
X013884Y016217D02*
X013884Y016557D01*
X013516Y016557D02*
X013516Y016387D01*
X014253Y016387D02*
X014253Y016500D01*
X014309Y016557D01*
X014423Y016557D01*
X014480Y016500D01*
X014480Y016443D01*
X014253Y016443D01*
X014253Y016387D02*
X014309Y016330D01*
X014423Y016330D01*
X014621Y016330D02*
X014621Y016557D01*
X014734Y016557D02*
X014791Y016557D01*
X014734Y016557D02*
X014621Y016443D01*
X014928Y016387D02*
X014985Y016330D01*
X015155Y016330D01*
X015296Y016387D02*
X015353Y016443D01*
X015523Y016443D01*
X015523Y016500D02*
X015523Y016330D01*
X015353Y016330D01*
X015296Y016387D01*
X015353Y016557D02*
X015466Y016557D01*
X015523Y016500D01*
X015665Y016443D02*
X015778Y016557D01*
X015835Y016557D01*
X015972Y016557D02*
X016085Y016557D01*
X016028Y016614D02*
X016028Y016387D01*
X016085Y016330D01*
X015665Y016330D02*
X015665Y016557D01*
X015155Y016557D02*
X014985Y016557D01*
X014928Y016500D01*
X014928Y016387D01*
X016380Y014150D02*
X002480Y014150D01*
X002480Y008950D01*
X016380Y008950D01*
X016380Y011050D01*
X016336Y011052D01*
X016293Y011058D01*
X016251Y011067D01*
X016209Y011080D01*
X016169Y011097D01*
X016130Y011117D01*
X016093Y011140D01*
X016059Y011167D01*
X016026Y011196D01*
X015997Y011229D01*
X015970Y011263D01*
X015947Y011300D01*
X015927Y011339D01*
X015910Y011379D01*
X015897Y011421D01*
X015888Y011463D01*
X015882Y011506D01*
X015880Y011550D01*
X015882Y011594D01*
X015888Y011637D01*
X015897Y011679D01*
X015910Y011721D01*
X015927Y011761D01*
X015947Y011800D01*
X015970Y011837D01*
X015997Y011871D01*
X016026Y011904D01*
X016059Y011933D01*
X016093Y011960D01*
X016130Y011983D01*
X016169Y012003D01*
X016209Y012020D01*
X016251Y012033D01*
X016293Y012042D01*
X016336Y012048D01*
X016380Y012050D01*
X016380Y014150D01*
X016680Y010400D02*
X017180Y010400D01*
X017206Y010398D01*
X017232Y010393D01*
X017257Y010385D01*
X017280Y010373D01*
X017302Y010359D01*
X017321Y010341D01*
X017339Y010322D01*
X017353Y010300D01*
X017365Y010277D01*
X017373Y010252D01*
X017378Y010226D01*
X017380Y010200D01*
X017380Y008900D01*
X017378Y008874D01*
X017373Y008848D01*
X017365Y008823D01*
X017353Y008800D01*
X017339Y008778D01*
X017321Y008759D01*
X017302Y008741D01*
X017280Y008727D01*
X017257Y008715D01*
X017232Y008707D01*
X017206Y008702D01*
X017180Y008700D01*
X016680Y008700D01*
X016654Y008702D01*
X016628Y008707D01*
X016603Y008715D01*
X016580Y008727D01*
X016558Y008741D01*
X016539Y008759D01*
X016521Y008778D01*
X016507Y008800D01*
X016495Y008823D01*
X016487Y008848D01*
X016482Y008874D01*
X016480Y008900D01*
X016480Y010200D01*
X016482Y010226D01*
X016487Y010252D01*
X016495Y010277D01*
X016507Y010300D01*
X016521Y010322D01*
X016539Y010341D01*
X016558Y010359D01*
X016580Y010373D01*
X016603Y010385D01*
X016628Y010393D01*
X016654Y010398D01*
X016680Y010400D01*
X016930Y010050D02*
X016930Y009680D01*
X016930Y009430D02*
X016930Y009050D01*
X010060Y016330D02*
X009890Y016330D01*
X009833Y016387D01*
X009833Y016500D01*
X009890Y016557D01*
X010060Y016557D01*
X010060Y016670D02*
X010060Y016330D01*
X009701Y016330D02*
X009587Y016330D01*
X009644Y016330D02*
X009644Y016557D01*
X009587Y016557D01*
X009644Y016670D02*
X009644Y016727D01*
X009446Y016670D02*
X009446Y016330D01*
X009276Y016330D01*
X009219Y016387D01*
X009219Y016500D01*
X009276Y016557D01*
X009446Y016557D01*
X009087Y016557D02*
X008974Y016557D01*
X009030Y016614D02*
X009030Y016387D01*
X009087Y016330D01*
X008832Y016670D02*
X008605Y016330D01*
X008464Y016330D02*
X008464Y016500D01*
X008407Y016557D01*
X008350Y016500D01*
X008350Y016330D01*
X008237Y016330D02*
X008237Y016557D01*
X008294Y016557D01*
X008350Y016500D01*
X008095Y016500D02*
X008039Y016557D01*
X007925Y016557D01*
X007869Y016500D01*
X007869Y016387D01*
X007925Y016330D01*
X008039Y016330D01*
X008095Y016387D01*
X008095Y016500D01*
X007727Y016557D02*
X007557Y016557D01*
X007500Y016500D01*
X007500Y016387D01*
X007557Y016330D01*
X007727Y016330D01*
X007373Y016330D02*
X007316Y016330D01*
X007316Y016387D01*
X007373Y016387D01*
X007373Y016330D01*
X007175Y016387D02*
X007175Y016500D01*
X007118Y016557D01*
X006948Y016557D01*
X006948Y016670D02*
X006948Y016330D01*
X007118Y016330D01*
X007175Y016387D01*
X006806Y016330D02*
X006806Y016557D01*
X006580Y016557D02*
X006580Y016387D01*
X006636Y016330D01*
X006806Y016330D01*
X006438Y016330D02*
X006438Y016500D01*
X006381Y016557D01*
X006268Y016557D01*
X006211Y016500D01*
X006079Y016557D02*
X005966Y016557D01*
X006022Y016614D02*
X006022Y016387D01*
X006079Y016330D01*
X006211Y016330D02*
X006211Y016670D01*
X005777Y016670D02*
X005777Y016727D01*
X005777Y016557D02*
X005777Y016330D01*
X005720Y016330D02*
X005834Y016330D01*
X005777Y016557D02*
X005720Y016557D01*
X005579Y016557D02*
X005409Y016557D01*
X005352Y016500D01*
X005352Y016387D01*
X005409Y016330D01*
X005579Y016330D01*
X005579Y016273D02*
X005579Y016557D01*
X005579Y016273D02*
X005522Y016217D01*
X005465Y016217D01*
X004984Y016330D02*
X005210Y016670D01*
X004842Y016670D02*
X004615Y016330D01*
X004488Y016330D02*
X004431Y016330D01*
X004431Y016387D01*
X004488Y016387D01*
X004488Y016330D01*
X004488Y016500D02*
X004431Y016500D01*
X004431Y016557D01*
X004488Y016557D01*
X004488Y016500D01*
X004290Y016557D02*
X004119Y016557D01*
X004063Y016500D01*
X004119Y016443D01*
X004233Y016443D01*
X004290Y016387D01*
X004233Y016330D01*
X004063Y016330D01*
X003921Y016387D02*
X003865Y016330D01*
X003694Y016330D01*
X003694Y016217D02*
X003694Y016557D01*
X003865Y016557D01*
X003921Y016500D01*
X003921Y016387D01*
X003562Y016330D02*
X003506Y016387D01*
X003506Y016614D01*
X003562Y016557D02*
X003449Y016557D01*
X003317Y016557D02*
X003203Y016557D01*
X003260Y016614D02*
X003260Y016387D01*
X003317Y016330D01*
X003062Y016330D02*
X003062Y016500D01*
X003005Y016557D01*
X002892Y016557D01*
X002835Y016500D01*
X002835Y016670D02*
X002835Y016330D01*
X001480Y027325D02*
X017380Y027325D01*
X017380Y029425D01*
X017336Y029427D01*
X017293Y029433D01*
X017251Y029442D01*
X017209Y029455D01*
X017169Y029472D01*
X017130Y029492D01*
X017093Y029515D01*
X017059Y029542D01*
X017026Y029571D01*
X016997Y029604D01*
X016970Y029638D01*
X016947Y029675D01*
X016927Y029714D01*
X016910Y029754D01*
X016897Y029796D01*
X016888Y029838D01*
X016882Y029881D01*
X016880Y029925D01*
X016882Y029969D01*
X016888Y030012D01*
X016897Y030054D01*
X016910Y030096D01*
X016927Y030136D01*
X016947Y030175D01*
X016970Y030212D01*
X016997Y030246D01*
X017026Y030279D01*
X017059Y030308D01*
X017093Y030335D01*
X017130Y030358D01*
X017169Y030378D01*
X017209Y030395D01*
X017251Y030408D01*
X017293Y030417D01*
X017336Y030423D01*
X017380Y030425D01*
X017380Y032525D01*
X001480Y032525D01*
X001480Y027325D01*
X015080Y031175D02*
X015080Y031675D01*
X015082Y031701D01*
X015087Y031727D01*
X015095Y031752D01*
X015107Y031775D01*
X015121Y031797D01*
X015139Y031816D01*
X015158Y031834D01*
X015180Y031848D01*
X015203Y031860D01*
X015228Y031868D01*
X015254Y031873D01*
X015280Y031875D01*
X016580Y031875D01*
X016606Y031873D01*
X016632Y031868D01*
X016657Y031860D01*
X016680Y031848D01*
X016702Y031834D01*
X016721Y031816D01*
X016739Y031797D01*
X016753Y031775D01*
X016765Y031752D01*
X016773Y031727D01*
X016778Y031701D01*
X016780Y031675D01*
X016780Y031175D01*
X016778Y031149D01*
X016773Y031123D01*
X016765Y031098D01*
X016753Y031075D01*
X016739Y031053D01*
X016721Y031034D01*
X016702Y031016D01*
X016680Y031002D01*
X016657Y030990D01*
X016632Y030982D01*
X016606Y030977D01*
X016580Y030975D01*
X015280Y030975D01*
X015254Y030977D01*
X015228Y030982D01*
X015203Y030990D01*
X015180Y031002D01*
X015158Y031016D01*
X015139Y031034D01*
X015121Y031053D01*
X015107Y031075D01*
X015095Y031098D01*
X015087Y031123D01*
X015082Y031149D01*
X015080Y031175D01*
X015430Y031425D02*
X015810Y031425D01*
X016060Y031425D02*
X016430Y031425D01*
X016680Y025525D02*
X017180Y025525D01*
X017206Y025523D01*
X017232Y025518D01*
X017257Y025510D01*
X017280Y025498D01*
X017302Y025484D01*
X017321Y025466D01*
X017339Y025447D01*
X017353Y025425D01*
X017365Y025402D01*
X017373Y025377D01*
X017378Y025351D01*
X017380Y025325D01*
X017380Y024025D01*
X017378Y023999D01*
X017373Y023973D01*
X017365Y023948D01*
X017353Y023925D01*
X017339Y023903D01*
X017321Y023884D01*
X017302Y023866D01*
X017280Y023852D01*
X017257Y023840D01*
X017232Y023832D01*
X017206Y023827D01*
X017180Y023825D01*
X016680Y023825D01*
X016654Y023827D01*
X016628Y023832D01*
X016603Y023840D01*
X016580Y023852D01*
X016558Y023866D01*
X016539Y023884D01*
X016521Y023903D01*
X016507Y023925D01*
X016495Y023948D01*
X016487Y023973D01*
X016482Y023999D01*
X016480Y024025D01*
X016480Y025325D01*
X016482Y025351D01*
X016487Y025377D01*
X016495Y025402D01*
X016507Y025425D01*
X016521Y025447D01*
X016539Y025466D01*
X016558Y025484D01*
X016580Y025498D01*
X016603Y025510D01*
X016628Y025518D01*
X016654Y025523D01*
X016680Y025525D01*
X016930Y025175D02*
X016930Y024795D01*
X016930Y024545D02*
X016930Y024175D01*
D13*
X015011Y029650D02*
X014814Y029650D01*
X014715Y029748D01*
X015109Y030142D01*
X015109Y029748D01*
X015011Y029650D01*
X015109Y030142D02*
X015011Y030241D01*
X014814Y030241D01*
X014715Y030142D01*
X014715Y029748D01*
X014465Y029650D02*
X014071Y029650D01*
X014268Y029650D02*
X014268Y030241D01*
X014071Y030044D01*
X013820Y030142D02*
X013820Y029748D01*
X013722Y029650D01*
X013525Y029650D01*
X013426Y029748D01*
X013820Y030142D01*
X013722Y030241D01*
X013525Y030241D01*
X013426Y030142D01*
X013426Y029748D01*
X013175Y029748D02*
X013077Y029650D01*
X012880Y029650D01*
X012782Y029748D01*
X012782Y030142D01*
X012880Y030241D01*
X013077Y030241D01*
X013175Y030142D01*
X012531Y030142D02*
X012531Y029748D01*
X012432Y029650D01*
X012236Y029650D01*
X012137Y029748D01*
X012236Y029945D02*
X012137Y030044D01*
X012137Y030142D01*
X012236Y030241D01*
X012432Y030241D01*
X012531Y030142D01*
X012531Y029945D02*
X012236Y029945D01*
X011886Y030044D02*
X011886Y030142D01*
X011788Y030241D01*
X011591Y030241D01*
X011493Y030142D01*
X011242Y030241D02*
X011242Y029650D01*
X011045Y029847D01*
X010848Y029650D01*
X010848Y030241D01*
X011493Y029650D02*
X011886Y030044D01*
X011886Y029650D02*
X011493Y029650D01*
X011324Y011866D02*
X011520Y011866D01*
X011619Y011767D01*
X011619Y011669D01*
X011520Y011570D01*
X011619Y011472D01*
X011619Y011373D01*
X011520Y011275D01*
X011324Y011275D01*
X011225Y011373D01*
X011422Y011570D02*
X011520Y011570D01*
X011225Y011767D02*
X011324Y011866D01*
X011870Y011767D02*
X011968Y011866D01*
X012165Y011866D01*
X012263Y011767D01*
X012263Y011669D01*
X011870Y011275D01*
X012263Y011275D01*
X012514Y011275D02*
X012514Y011866D01*
X012809Y011669D02*
X012514Y011472D01*
X012809Y011275D01*
X013696Y011275D02*
X014090Y011669D01*
X014340Y011669D02*
X014340Y011767D01*
X014439Y011866D01*
X014636Y011866D01*
X014734Y011767D01*
X014734Y011669D01*
X014636Y011570D01*
X014439Y011570D01*
X014340Y011669D01*
X014439Y011570D02*
X014340Y011472D01*
X014340Y011373D01*
X014439Y011275D01*
X014636Y011275D01*
X014734Y011373D01*
X014734Y011472D01*
X014636Y011570D01*
X014090Y011275D02*
X013696Y011669D01*
X010330Y011866D02*
X010330Y011275D01*
X010133Y011669D02*
X010330Y011866D01*
X010133Y011669D02*
X009936Y011866D01*
X009936Y011275D01*
X009685Y011275D02*
X009685Y011669D01*
X009488Y011866D01*
X009291Y011669D01*
X009291Y011275D01*
X009041Y011275D02*
X008844Y011472D01*
X008942Y011472D02*
X008647Y011472D01*
X008647Y011275D02*
X008647Y011866D01*
X008942Y011866D01*
X009041Y011767D01*
X009041Y011570D01*
X008942Y011472D01*
X009291Y011570D02*
X009685Y011570D01*
D14*
X016630Y009680D02*
X016930Y009680D01*
X017230Y009680D01*
X017230Y009430D02*
X016930Y009430D01*
X016630Y009430D01*
X016630Y024545D02*
X016930Y024545D01*
X017230Y024545D01*
X017230Y024795D02*
X016930Y024795D01*
X016630Y024795D01*
X016060Y031125D02*
X016060Y031425D01*
X016060Y031725D01*
X015810Y031725D02*
X015810Y031425D01*
X015810Y031125D01*
D15*
X016930Y025600D03*
X016930Y023750D03*
X016930Y010475D03*
X016930Y008625D03*
D16*
X016855Y031425D03*
X015005Y031425D03*
M02*
