G75*
%MOIN*%
%OFA0B0*%
%FSLAX24Y24*%
%IPPOS*%
%LPD*%
%AMOC8*
5,1,8,0,0,1.08239X$1,22.5*
%
%ADD10C,0.2730*%
%ADD11R,0.0680X0.2630*%
%ADD12C,0.0600*%
%ADD13OC8,0.0600*%
D10*
X009430Y022800D03*
D11*
X000930Y003800D03*
X001930Y003800D03*
X003930Y003800D03*
X004930Y003800D03*
X005930Y003800D03*
X006930Y003800D03*
X007930Y003800D03*
X008930Y003800D03*
X009930Y003800D03*
X010930Y003800D03*
X011930Y003800D03*
X012930Y003800D03*
X013930Y003800D03*
X014930Y003800D03*
X016930Y003800D03*
X017930Y003800D03*
D12*
X015930Y008290D02*
X015930Y008810D01*
X014930Y008810D02*
X014930Y008290D01*
X013930Y008290D02*
X013930Y008810D01*
X012930Y008810D02*
X012930Y008290D01*
X011930Y008290D02*
X011930Y008810D01*
X010930Y008810D02*
X010930Y008290D01*
X009930Y008290D02*
X009930Y008810D01*
X008930Y008810D02*
X008930Y008290D01*
X007930Y008290D02*
X007930Y008810D01*
X006930Y008810D02*
X006930Y008290D01*
X005930Y008290D02*
X005930Y008810D01*
X004930Y008810D02*
X004930Y008290D01*
X003930Y008290D02*
X003930Y008810D01*
X002930Y008810D02*
X002930Y008290D01*
X002930Y014290D02*
X002930Y014810D01*
X003930Y014810D02*
X003930Y014290D01*
X004930Y014290D02*
X004930Y014810D01*
X005930Y014810D02*
X005930Y014290D01*
X006930Y014290D02*
X006930Y014810D01*
X007930Y014810D02*
X007930Y014290D01*
X008930Y014290D02*
X008930Y014810D01*
X009930Y014810D02*
X009930Y014290D01*
X010930Y014290D02*
X010930Y014810D01*
X011930Y014810D02*
X011930Y014290D01*
X012930Y014290D02*
X012930Y014810D01*
X013930Y014810D02*
X013930Y014290D01*
X014930Y014290D02*
X014930Y014810D01*
X015930Y014810D02*
X015930Y014290D01*
X015930Y026665D02*
X015930Y027185D01*
X014930Y027185D02*
X014930Y026665D01*
X013930Y026665D02*
X013930Y027185D01*
X012930Y027185D02*
X012930Y026665D01*
X012930Y028165D02*
X012930Y028685D01*
X011930Y028685D02*
X011930Y028165D01*
X011930Y027185D02*
X011930Y026665D01*
X010930Y026665D02*
X010930Y027185D01*
X010930Y028165D02*
X010930Y028685D01*
X009930Y028685D02*
X009930Y028165D01*
X009930Y027185D02*
X009930Y026665D01*
X008930Y026665D02*
X008930Y027185D01*
X008930Y028165D02*
X008930Y028685D01*
X007930Y028685D02*
X007930Y028165D01*
X007930Y027185D02*
X007930Y026665D01*
X006930Y026665D02*
X006930Y027185D01*
X006930Y028165D02*
X006930Y028685D01*
X005930Y028685D02*
X005930Y028165D01*
X005930Y027185D02*
X005930Y026665D01*
X004930Y026665D02*
X004930Y027185D01*
X004930Y028165D02*
X004930Y028685D01*
X003930Y028685D02*
X003930Y028165D01*
X003930Y027185D02*
X003930Y026665D01*
X002930Y026665D02*
X002930Y027185D01*
X002930Y028165D02*
X002930Y028685D01*
X001930Y028685D02*
X001930Y028165D01*
X001930Y027185D02*
X001930Y026665D01*
X001930Y031165D02*
X001930Y031685D01*
X001930Y032665D02*
X001930Y033185D01*
X002930Y033185D02*
X002930Y032665D01*
X002930Y031685D02*
X002930Y031165D01*
X003930Y031165D02*
X003930Y031685D01*
X003930Y032665D02*
X003930Y033185D01*
X004930Y033185D02*
X004930Y032665D01*
X004930Y031685D02*
X004930Y031165D01*
X005930Y031165D02*
X005930Y031685D01*
X005930Y032665D02*
X005930Y033185D01*
X006930Y033185D02*
X006930Y032665D01*
X006930Y031685D02*
X006930Y031165D01*
X007930Y031165D02*
X007930Y031685D01*
X007930Y032665D02*
X007930Y033185D01*
X008930Y033185D02*
X008930Y032665D01*
X008930Y031685D02*
X008930Y031165D01*
X009930Y031165D02*
X009930Y031685D01*
X009930Y032665D02*
X009930Y033185D01*
X010930Y033185D02*
X010930Y032665D01*
X010930Y031685D02*
X010930Y031165D01*
X011930Y031165D02*
X011930Y031685D01*
X011930Y032665D02*
X011930Y033185D01*
X012930Y033185D02*
X012930Y032665D01*
X012930Y031685D02*
X012930Y031165D01*
X013930Y032665D02*
X013930Y033185D01*
X014930Y033185D02*
X014930Y032665D01*
X015930Y032665D02*
X015930Y033185D01*
X016930Y033185D02*
X016930Y032665D01*
X016930Y027185D02*
X016930Y026665D01*
D13*
X016930Y025675D03*
X016930Y023675D03*
X017055Y028050D03*
X016430Y028050D03*
X016430Y030050D03*
X017055Y030050D03*
X017680Y030050D03*
X016930Y031425D03*
X017680Y028050D03*
X014930Y031425D03*
X016930Y010550D03*
X016930Y008550D03*
M02*
