%
M48
M72
T01C0.0150
T02C0.0320
T03C0.2650
%
T01
X4430Y5925
X5430Y5925
X6430Y5925
X7430Y5925
X8430Y5925
X9430Y7175
X10430Y5925
X11430Y5925
X12430Y5925
X13430Y5925
X13930Y6675
X14930Y11300
X16930Y7175
X17805Y12800
X10930Y20300
X10430Y20675
X9930Y19925
X9430Y18800
X8930Y19175
X8430Y19550
X8430Y25800
X7430Y25800
X9430Y25800
X15430Y29925
X8430Y11300
X2055Y9800
T02
X2930Y8550
X3930Y8550
X4930Y8550
X5930Y8550
X6930Y8550
X7930Y8550
X8930Y8550
X9930Y8550
X10930Y8550
X11930Y8550
X12930Y8550
X13930Y8550
X14930Y8550
X15930Y8550
X16930Y8550
X16930Y10550
X15930Y14550
X14930Y14550
X13930Y14550
X12930Y14550
X11930Y14550
X10930Y14550
X9930Y14550
X8930Y14550
X7930Y14550
X6930Y14550
X5930Y14550
X4930Y14550
X3930Y14550
X2930Y14550
X2930Y26925
X2930Y28425
X1930Y28425
X1930Y26925
X3930Y26925
X3930Y28425
X4930Y28425
X4930Y26925
X5930Y26925
X5930Y28425
X6930Y28425
X6930Y26925
X7930Y26925
X7930Y28425
X8930Y28425
X8930Y26925
X9930Y26925
X9930Y28425
X10930Y28425
X10930Y26925
X11930Y26925
X11930Y28425
X12930Y28425
X12930Y26925
X13930Y26925
X14930Y26925
X15930Y26925
X16430Y28050
X17055Y28050
X16930Y26925
X16930Y25675
X16930Y23675
X17680Y28050
X17680Y30050
X17055Y30050
X16430Y30050
X16930Y31425
X16930Y32925
X15930Y32925
X14930Y32925
X14930Y31425
X13930Y32925
X12930Y32925
X12930Y31425
X11930Y31425
X11930Y32925
X10930Y32925
X10930Y31425
X9930Y31425
X9930Y32925
X8930Y32925
X8930Y31425
X7930Y31425
X7930Y32925
X6930Y32925
X6930Y31425
X5930Y31425
X5930Y32925
X4930Y32925
X4930Y31425
X3930Y31425
X3930Y32925
X2930Y32925
X2930Y31425
X1930Y31425
X1930Y32925
T03
X9430Y22800
M30
